{
	"asset":{
		"generator":"Khronos glTF Blender I/O v4.4.56",
		"version":"2.0"
	},
	"scene":0,
	"scenes":[
		{
			"name":"armchair",
			"nodes":[
				1
			]
		}
	],
	"nodes":[
		{
			"mesh":0,
			"name":"ArmchairD_collider"
		},
		{
			"children":[
				0
			],
			"mesh":1,
			"name":"ArmchairD"
		}
	],
	"materials":[
		{
			"doubleSided":true,
			"name":"Template_Palette_semirough",
			"pbrMetallicRoughness":{
				"baseColorTexture":{
					"index":0
				},
				"metallicFactor":0,
				"roughnessFactor":0.6000000238418579
			}
		},
		{
			"doubleSided":true,
			"emissiveFactor":[
				1,
				1,
				1
			],
			"emissiveTexture":{
				"index":1
			},
			"name":"Template_Palette_Emission",
			"pbrMetallicRoughness":{
				"baseColorTexture":{
					"index":2
				},
				"metallicFactor":0.20000000298023224,
				"roughnessFactor":0.2631579041481018
			}
		}
	],
	"meshes":[
		{
			"name":"Plane.030",
			"primitives":[
				{
					"attributes":{
						"POSITION":0,
						"NORMAL":1,
						"TEXCOORD_0":2
					},
					"indices":3
				}
			]
		},
		{
			"name":"Plane.032",
			"primitives":[
				{
					"attributes":{
						"POSITION":4,
						"NORMAL":5,
						"TEXCOORD_0":6
					},
					"indices":7,
					"material":0
				},
				{
					"attributes":{
						"POSITION":8,
						"NORMAL":9,
						"TEXCOORD_0":10
					},
					"indices":11,
					"material":1
				}
			]
		}
	],
	"textures":[
		{
			"sampler":0,
			"source":0
		},
		{
			"sampler":0,
			"source":0
		},
		{
			"sampler":0,
			"source":0
		}
	],
	"images":[
		{
			"mimeType":"image/png",
			"name":"template_palette",
			"uri":"textures/template_palette.png"
		}
	],
	"accessors":[
		{
			"bufferView":0,
			"componentType":5126,
			"count":116,
			"max":[
				0.8850005269050598,
				1.2959718704223633,
				0.3991479277610779
			],
			"min":[
				-0.8839420676231384,
				0.039807796478271484,
				-0.9098829627037048
			],
			"type":"VEC3"
		},
		{
			"bufferView":1,
			"componentType":5126,
			"count":116,
			"type":"VEC3"
		},
		{
			"bufferView":2,
			"componentType":5126,
			"count":116,
			"type":"VEC2"
		},
		{
			"bufferView":3,
			"componentType":5123,
			"count":210,
			"type":"SCALAR"
		},
		{
			"bufferView":4,
			"componentType":5126,
			"count":401,
			"max":[
				0.7994189858436584,
				1.2762044668197632,
				0.3981022834777832
			],
			"min":[
				-0.7987470626831055,
				0.039807796478271484,
				-0.8745596408843994
			],
			"type":"VEC3"
		},
		{
			"bufferView":5,
			"componentType":5126,
			"count":401,
			"type":"VEC3"
		},
		{
			"bufferView":6,
			"componentType":5126,
			"count":401,
			"type":"VEC2"
		},
		{
			"bufferView":7,
			"componentType":5123,
			"count":1476,
			"type":"SCALAR"
		},
		{
			"bufferView":8,
			"componentType":5126,
			"count":56,
			"max":[
				0.7854064106941223,
				0.12010021507740021,
				0.3841642141342163
			],
			"min":[
				-0.7843772172927856,
				0.09783542156219482,
				-0.7652275562286377
			],
			"type":"VEC3"
		},
		{
			"bufferView":9,
			"componentType":5126,
			"count":56,
			"type":"VEC3"
		},
		{
			"bufferView":10,
			"componentType":5126,
			"count":56,
			"type":"VEC2"
		},
		{
			"bufferView":11,
			"componentType":5123,
			"count":168,
			"type":"SCALAR"
		}
	],
	"bufferViews":[
		{
			"buffer":0,
			"byteLength":1392,
			"byteOffset":0,
			"target":34962
		},
		{
			"buffer":0,
			"byteLength":1392,
			"byteOffset":1392,
			"target":34962
		},
		{
			"buffer":0,
			"byteLength":928,
			"byteOffset":2784,
			"target":34962
		},
		{
			"buffer":0,
			"byteLength":420,
			"byteOffset":3712,
			"target":34963
		},
		{
			"buffer":0,
			"byteLength":4812,
			"byteOffset":4132,
			"target":34962
		},
		{
			"buffer":0,
			"byteLength":4812,
			"byteOffset":8944,
			"target":34962
		},
		{
			"buffer":0,
			"byteLength":3208,
			"byteOffset":13756,
			"target":34962
		},
		{
			"buffer":0,
			"byteLength":2952,
			"byteOffset":16964,
			"target":34963
		},
		{
			"buffer":0,
			"byteLength":672,
			"byteOffset":19916,
			"target":34962
		},
		{
			"buffer":0,
			"byteLength":672,
			"byteOffset":20588,
			"target":34962
		},
		{
			"buffer":0,
			"byteLength":448,
			"byteOffset":21260,
			"target":34962
		},
		{
			"buffer":0,
			"byteLength":336,
			"byteOffset":21708,
			"target":34963
		}
	],
	"samplers":[
		{
			"magFilter":9729,
			"minFilter":9987
		}
	],
	"buffers":[
		{
			"byteLength":22044,
			"uri":"armchair.bin"
		}
	]
}
