{
	"asset":{
		"generator":"Khronos glTF Blender I/O v4.4.56",
		"version":"2.0"
	},
	"scene":0,
	"scenes":[
		{
			"name":"coffee_table",
			"nodes":[
				0,
				1,
				2
			]
		}
	],
	"nodes":[
		{
			"mesh":0,
			"name":"Plane.017"
		},
		{
			"mesh":1,
			"name":"Plane.018"
		},
		{
			"mesh":2,
			"name":"coffee_table_collider"
		}
	],
	"materials":[
		{
			"doubleSided":true,
			"name":"Template_Palette_semirough",
			"pbrMetallicRoughness":{
				"baseColorTexture":{
					"index":0
				},
				"metallicFactor":0,
				"roughnessFactor":0.6000000238418579
			}
		},
		{
			"doubleSided":true,
			"emissiveFactor":[
				1,
				1,
				1
			],
			"emissiveTexture":{
				"index":1
			},
			"name":"Template_Palette_Emission",
			"pbrMetallicRoughness":{
				"baseColorTexture":{
					"index":2
				},
				"metallicFactor":0.20000000298023224,
				"roughnessFactor":0.2631579041481018
			}
		}
	],
	"meshes":[
		{
			"name":"Plane.033",
			"primitives":[
				{
					"attributes":{
						"POSITION":0,
						"NORMAL":1,
						"TEXCOORD_0":2
					},
					"indices":3,
					"material":0
				}
			]
		},
		{
			"name":"Plane.041",
			"primitives":[
				{
					"attributes":{
						"POSITION":4,
						"NORMAL":5,
						"TEXCOORD_0":6
					},
					"indices":7,
					"material":1
				}
			]
		},
		{
			"name":"Cube.005",
			"primitives":[
				{
					"attributes":{
						"POSITION":8,
						"NORMAL":9,
						"TEXCOORD_0":10
					},
					"indices":11
				}
			]
		}
	],
	"textures":[
		{
			"sampler":0,
			"source":0
		},
		{
			"sampler":0,
			"source":0
		},
		{
			"sampler":0,
			"source":0
		}
	],
	"images":[
		{
			"mimeType":"image/png",
			"name":"template_palette",
			"uri":"textures/template_palette.png"
		}
	],
	"accessors":[
		{
			"bufferView":0,
			"componentType":5126,
			"count":182,
			"max":[
				0.7321444153785706,
				0.4817183315753937,
				0.4103274941444397
			],
			"min":[
				-0.7321444153785706,
				0.014713078737258911,
				-0.4103274941444397
			],
			"type":"VEC3"
		},
		{
			"bufferView":1,
			"componentType":5126,
			"count":182,
			"type":"VEC3"
		},
		{
			"bufferView":2,
			"componentType":5126,
			"count":182,
			"type":"VEC2"
		},
		{
			"bufferView":3,
			"componentType":5123,
			"count":492,
			"type":"SCALAR"
		},
		{
			"bufferView":4,
			"componentType":5126,
			"count":120,
			"max":[
				0.7053795456886292,
				0.45495352149009705,
				0.4192501902580261
			],
			"min":[
				-0.7053795456886292,
				0.041478320956230164,
				-0.4192501902580261
			],
			"type":"VEC3"
		},
		{
			"bufferView":5,
			"componentType":5126,
			"count":120,
			"type":"VEC3"
		},
		{
			"bufferView":6,
			"componentType":5126,
			"count":120,
			"type":"VEC2"
		},
		{
			"bufferView":7,
			"componentType":5123,
			"count":324,
			"type":"SCALAR"
		},
		{
			"bufferView":8,
			"componentType":5126,
			"count":24,
			"max":[
				0.7385094165802002,
				0.48811793327331543,
				0.42537060379981995
			],
			"min":[
				-0.7385094165802002,
				0,
				-0.42537060379981995
			],
			"type":"VEC3"
		},
		{
			"bufferView":9,
			"componentType":5126,
			"count":24,
			"type":"VEC3"
		},
		{
			"bufferView":10,
			"componentType":5126,
			"count":24,
			"type":"VEC2"
		},
		{
			"bufferView":11,
			"componentType":5123,
			"count":36,
			"type":"SCALAR"
		}
	],
	"bufferViews":[
		{
			"buffer":0,
			"byteLength":2184,
			"byteOffset":0,
			"target":34962
		},
		{
			"buffer":0,
			"byteLength":2184,
			"byteOffset":2184,
			"target":34962
		},
		{
			"buffer":0,
			"byteLength":1456,
			"byteOffset":4368,
			"target":34962
		},
		{
			"buffer":0,
			"byteLength":984,
			"byteOffset":5824,
			"target":34963
		},
		{
			"buffer":0,
			"byteLength":1440,
			"byteOffset":6808,
			"target":34962
		},
		{
			"buffer":0,
			"byteLength":1440,
			"byteOffset":8248,
			"target":34962
		},
		{
			"buffer":0,
			"byteLength":960,
			"byteOffset":9688,
			"target":34962
		},
		{
			"buffer":0,
			"byteLength":648,
			"byteOffset":10648,
			"target":34963
		},
		{
			"buffer":0,
			"byteLength":288,
			"byteOffset":11296,
			"target":34962
		},
		{
			"buffer":0,
			"byteLength":288,
			"byteOffset":11584,
			"target":34962
		},
		{
			"buffer":0,
			"byteLength":192,
			"byteOffset":11872,
			"target":34962
		},
		{
			"buffer":0,
			"byteLength":72,
			"byteOffset":12064,
			"target":34963
		}
	],
	"samplers":[
		{
			"magFilter":9729,
			"minFilter":9987
		}
	],
	"buffers":[
		{
			"byteLength":12136,
			"uri":"coffee_table.bin"
		}
	]
}
