{
	"asset":{
		"generator":"Khronos glTF Blender I/O v4.4.56",
		"version":"2.0"
	},
	"extensionsUsed":[
		"KHR_materials_specular"
	],
	"scene":0,
	"scenes":[
		{
			"name":"door_01",
			"nodes":[
				6
			]
		}
	],
	"nodes":[
		{
			"mesh":1,
			"name":"door_collider_R",
			"scale":[
				2,
				2,
				1
			],
			"translation":[
				-1.012575626373291,
				0,
				0
			]
		},
		{
			"children":[
				0
			],
			"name":"Door_R",
			"translation":[
				1,
				0,
				0
			]
		},
		{
			"mesh":2,
			"name":"door_collider_L",
			"scale":[
				2,
				2,
				1
			],
			"translation":[
				1,
				0,
				0
			]
		},
		{
			"children":[
				2
			],
			"name":"Door_L",
			"translation":[
				-1,
				0,
				0
			]
		},
		{
			"children":[
				1,
				3
			],
			"name":"Root"
		},
		{
			"mesh":0,
			"name":"door_01",
			"skin":0
		},
		{
			"children":[
				5,
				4
			],
			"name":"Door_Armature"
		}
	],
	"animations":[
		{
			"channels":[
				{
					"sampler":0,
					"target":{
						"node":4,
						"path":"translation"
					}
				},
				{
					"sampler":1,
					"target":{
						"node":4,
						"path":"rotation"
					}
				},
				{
					"sampler":2,
					"target":{
						"node":4,
						"path":"scale"
					}
				},
				{
					"sampler":3,
					"target":{
						"node":1,
						"path":"translation"
					}
				},
				{
					"sampler":4,
					"target":{
						"node":1,
						"path":"rotation"
					}
				},
				{
					"sampler":5,
					"target":{
						"node":1,
						"path":"scale"
					}
				},
				{
					"sampler":6,
					"target":{
						"node":3,
						"path":"translation"
					}
				},
				{
					"sampler":7,
					"target":{
						"node":3,
						"path":"rotation"
					}
				},
				{
					"sampler":8,
					"target":{
						"node":3,
						"path":"scale"
					}
				}
			],
			"name":"[Action Stash]",
			"samplers":[
				{
					"input":27,
					"interpolation":"STEP",
					"output":28
				},
				{
					"input":27,
					"interpolation":"STEP",
					"output":29
				},
				{
					"input":27,
					"interpolation":"STEP",
					"output":30
				},
				{
					"input":27,
					"interpolation":"STEP",
					"output":31
				},
				{
					"input":27,
					"interpolation":"STEP",
					"output":32
				},
				{
					"input":27,
					"interpolation":"STEP",
					"output":33
				},
				{
					"input":27,
					"interpolation":"STEP",
					"output":34
				},
				{
					"input":27,
					"interpolation":"STEP",
					"output":35
				},
				{
					"input":27,
					"interpolation":"STEP",
					"output":36
				}
			]
		},
		{
			"channels":[
				{
					"sampler":0,
					"target":{
						"node":4,
						"path":"translation"
					}
				},
				{
					"sampler":1,
					"target":{
						"node":4,
						"path":"rotation"
					}
				},
				{
					"sampler":2,
					"target":{
						"node":4,
						"path":"scale"
					}
				},
				{
					"sampler":3,
					"target":{
						"node":1,
						"path":"translation"
					}
				},
				{
					"sampler":4,
					"target":{
						"node":1,
						"path":"rotation"
					}
				},
				{
					"sampler":5,
					"target":{
						"node":1,
						"path":"scale"
					}
				},
				{
					"sampler":6,
					"target":{
						"node":3,
						"path":"translation"
					}
				},
				{
					"sampler":7,
					"target":{
						"node":3,
						"path":"rotation"
					}
				},
				{
					"sampler":8,
					"target":{
						"node":3,
						"path":"scale"
					}
				}
			],
			"name":"0. Door_Close",
			"samplers":[
				{
					"input":37,
					"interpolation":"STEP",
					"output":38
				},
				{
					"input":37,
					"interpolation":"STEP",
					"output":39
				},
				{
					"input":37,
					"interpolation":"STEP",
					"output":40
				},
				{
					"input":37,
					"interpolation":"STEP",
					"output":41
				},
				{
					"input":37,
					"interpolation":"STEP",
					"output":42
				},
				{
					"input":37,
					"interpolation":"STEP",
					"output":43
				},
				{
					"input":37,
					"interpolation":"STEP",
					"output":44
				},
				{
					"input":37,
					"interpolation":"STEP",
					"output":45
				},
				{
					"input":37,
					"interpolation":"STEP",
					"output":46
				}
			]
		},
		{
			"channels":[
				{
					"sampler":0,
					"target":{
						"node":4,
						"path":"translation"
					}
				},
				{
					"sampler":1,
					"target":{
						"node":4,
						"path":"rotation"
					}
				},
				{
					"sampler":2,
					"target":{
						"node":4,
						"path":"scale"
					}
				},
				{
					"sampler":3,
					"target":{
						"node":1,
						"path":"translation"
					}
				},
				{
					"sampler":4,
					"target":{
						"node":1,
						"path":"rotation"
					}
				},
				{
					"sampler":5,
					"target":{
						"node":1,
						"path":"scale"
					}
				},
				{
					"sampler":6,
					"target":{
						"node":3,
						"path":"translation"
					}
				},
				{
					"sampler":7,
					"target":{
						"node":3,
						"path":"rotation"
					}
				},
				{
					"sampler":8,
					"target":{
						"node":3,
						"path":"scale"
					}
				}
			],
			"name":"1. Door_Open",
			"samplers":[
				{
					"input":47,
					"interpolation":"STEP",
					"output":48
				},
				{
					"input":47,
					"interpolation":"STEP",
					"output":49
				},
				{
					"input":47,
					"interpolation":"STEP",
					"output":50
				},
				{
					"input":51,
					"interpolation":"LINEAR",
					"output":52
				},
				{
					"input":47,
					"interpolation":"STEP",
					"output":53
				},
				{
					"input":47,
					"interpolation":"STEP",
					"output":54
				},
				{
					"input":51,
					"interpolation":"LINEAR",
					"output":55
				},
				{
					"input":47,
					"interpolation":"STEP",
					"output":56
				},
				{
					"input":47,
					"interpolation":"STEP",
					"output":57
				}
			]
		}
	],
	"materials":[
		{
			"doubleSided":true,
			"name":"Template_Palette",
			"pbrMetallicRoughness":{
				"baseColorTexture":{
					"index":0
				},
				"metallicFactor":0.20000000298023224,
				"roughnessFactor":0.2631579041481018
			}
		},
		{
			"alphaMode":"BLEND",
			"doubleSided":true,
			"extensions":{
				"KHR_materials_specular":{
					"specularColorFactor":[
						2.0,
						2.0,
						2.0
					]
				}
			},
			"name":"Template_Palette_Glass",
			"pbrMetallicRoughness":{
				"baseColorFactor":[
					1,
					1,
					1,
					0.20000000298023224
				],
				"baseColorTexture":{
					"index":1
				},
				"metallicFactor":0.20000000298023224,
				"roughnessFactor":0
			}
		},
		{
			"doubleSided":true,
			"emissiveFactor":[
				1,
				1,
				1
			],
			"emissiveTexture":{
				"index":2
			},
			"name":"Template_Palette_Emission",
			"pbrMetallicRoughness":{
				"baseColorTexture":{
					"index":3
				},
				"metallicFactor":0.20000000298023224,
				"roughnessFactor":0.2631579041481018
			}
		}
	],
	"meshes":[
		{
			"name":"Cube.004",
			"primitives":[
				{
					"attributes":{
						"POSITION":0,
						"NORMAL":1,
						"TEXCOORD_0":2,
						"JOINTS_0":3,
						"WEIGHTS_0":4
					},
					"indices":5,
					"material":0
				},
				{
					"attributes":{
						"POSITION":6,
						"NORMAL":7,
						"TEXCOORD_0":8,
						"JOINTS_0":9,
						"WEIGHTS_0":10
					},
					"indices":11,
					"material":1
				},
				{
					"attributes":{
						"POSITION":12,
						"NORMAL":13,
						"TEXCOORD_0":14,
						"JOINTS_0":15,
						"WEIGHTS_0":16
					},
					"indices":17,
					"material":2
				}
			]
		},
		{
			"name":"Cube.009",
			"primitives":[
				{
					"attributes":{
						"POSITION":19,
						"NORMAL":20,
						"TEXCOORD_0":21
					},
					"indices":22
				}
			]
		},
		{
			"name":"Cube.010",
			"primitives":[
				{
					"attributes":{
						"POSITION":23,
						"NORMAL":24,
						"TEXCOORD_0":25
					},
					"indices":26
				}
			]
		}
	],
	"textures":[
		{
			"sampler":0,
			"source":0
		},
		{
			"sampler":0,
			"source":0
		},
		{
			"sampler":0,
			"source":0
		},
		{
			"sampler":0,
			"source":0
		}
	],
	"images":[
		{
			"mimeType":"image/png",
			"name":"template_palette",
			"uri":"textures/template_palette.png"
		}
	],
	"skins":[
		{
			"inverseBindMatrices":18,
			"joints":[
				4,
				1,
				3
			],
			"name":"Door_Armature"
		}
	],
	"accessors":[
		{
			"bufferView":0,
			"componentType":5126,
			"count":96,
			"max":[
				2.0525918006896973,
				4.497112274169922,
				0.10000000149011612
			],
			"min":[
				-2.0525918006896973,
				0.053312499076128006,
				-0.10000000149011612
			],
			"type":"VEC3"
		},
		{
			"bufferView":1,
			"componentType":5126,
			"count":96,
			"type":"VEC3"
		},
		{
			"bufferView":2,
			"componentType":5126,
			"count":96,
			"type":"VEC2"
		},
		{
			"bufferView":3,
			"componentType":5121,
			"count":96,
			"type":"VEC4"
		},
		{
			"bufferView":4,
			"componentType":5126,
			"count":96,
			"type":"VEC4"
		},
		{
			"bufferView":5,
			"componentType":5123,
			"count":192,
			"type":"SCALAR"
		},
		{
			"bufferView":6,
			"componentType":5126,
			"count":18,
			"max":[
				1.8738529682159424,
				4.365817070007324,
				0.10000000149011612
			],
			"min":[
				-1.8738529682159424,
				0.18460750579833984,
				0.10000000149011612
			],
			"type":"VEC3"
		},
		{
			"bufferView":7,
			"componentType":5126,
			"count":18,
			"type":"VEC3"
		},
		{
			"bufferView":8,
			"componentType":5126,
			"count":18,
			"type":"VEC2"
		},
		{
			"bufferView":9,
			"componentType":5121,
			"count":18,
			"type":"VEC4"
		},
		{
			"bufferView":10,
			"componentType":5126,
			"count":18,
			"type":"VEC4"
		},
		{
			"bufferView":11,
			"componentType":5123,
			"count":48,
			"type":"SCALAR"
		},
		{
			"bufferView":12,
			"componentType":5126,
			"count":32,
			"max":[
				1.9934442043304443,
				4.479930400848389,
				0.10580771416425705
			],
			"min":[
				-1.9934442043304443,
				0.07049460709095001,
				-0.10313822329044342
			],
			"type":"VEC3"
		},
		{
			"bufferView":13,
			"componentType":5126,
			"count":32,
			"type":"VEC3"
		},
		{
			"bufferView":14,
			"componentType":5126,
			"count":32,
			"type":"VEC2"
		},
		{
			"bufferView":15,
			"componentType":5121,
			"count":32,
			"type":"VEC4"
		},
		{
			"bufferView":16,
			"componentType":5126,
			"count":32,
			"type":"VEC4"
		},
		{
			"bufferView":17,
			"componentType":5123,
			"count":96,
			"type":"SCALAR"
		},
		{
			"bufferView":18,
			"componentType":5126,
			"count":3,
			"type":"MAT4"
		},
		{
			"bufferView":19,
			"componentType":5126,
			"count":24,
			"max":[
				1.0261305570602417,
				2.248556137084961,
				0.10000000149011612
			],
			"min":[
				0,
				0,
				-0.10000000149011612
			],
			"type":"VEC3"
		},
		{
			"bufferView":20,
			"componentType":5126,
			"count":24,
			"type":"VEC3"
		},
		{
			"bufferView":21,
			"componentType":5126,
			"count":24,
			"type":"VEC2"
		},
		{
			"bufferView":22,
			"componentType":5123,
			"count":36,
			"type":"SCALAR"
		},
		{
			"bufferView":23,
			"componentType":5126,
			"count":24,
			"max":[
				0,
				2.248556137084961,
				0.10000000149011612
			],
			"min":[
				-1.0262959003448486,
				0,
				-0.10000000149011612
			],
			"type":"VEC3"
		},
		{
			"bufferView":24,
			"componentType":5126,
			"count":24,
			"type":"VEC3"
		},
		{
			"bufferView":25,
			"componentType":5126,
			"count":24,
			"type":"VEC2"
		},
		{
			"bufferView":26,
			"componentType":5123,
			"count":36,
			"type":"SCALAR"
		},
		{
			"bufferView":27,
			"componentType":5126,
			"count":2,
			"max":[
				0.03333333333333333
			],
			"min":[
				0
			],
			"type":"SCALAR"
		},
		{
			"bufferView":28,
			"componentType":5126,
			"count":2,
			"type":"VEC3"
		},
		{
			"bufferView":29,
			"componentType":5126,
			"count":2,
			"type":"VEC4"
		},
		{
			"bufferView":30,
			"componentType":5126,
			"count":2,
			"type":"VEC3"
		},
		{
			"bufferView":31,
			"componentType":5126,
			"count":2,
			"type":"VEC3"
		},
		{
			"bufferView":32,
			"componentType":5126,
			"count":2,
			"type":"VEC4"
		},
		{
			"bufferView":33,
			"componentType":5126,
			"count":2,
			"type":"VEC3"
		},
		{
			"bufferView":34,
			"componentType":5126,
			"count":2,
			"type":"VEC3"
		},
		{
			"bufferView":35,
			"componentType":5126,
			"count":2,
			"type":"VEC4"
		},
		{
			"bufferView":36,
			"componentType":5126,
			"count":2,
			"type":"VEC3"
		},
		{
			"bufferView":37,
			"componentType":5126,
			"count":2,
			"max":[
				0.06666666666666667
			],
			"min":[
				0.03333333333333333
			],
			"type":"SCALAR"
		},
		{
			"bufferView":38,
			"componentType":5126,
			"count":2,
			"type":"VEC3"
		},
		{
			"bufferView":39,
			"componentType":5126,
			"count":2,
			"type":"VEC4"
		},
		{
			"bufferView":40,
			"componentType":5126,
			"count":2,
			"type":"VEC3"
		},
		{
			"bufferView":41,
			"componentType":5126,
			"count":2,
			"type":"VEC3"
		},
		{
			"bufferView":42,
			"componentType":5126,
			"count":2,
			"type":"VEC4"
		},
		{
			"bufferView":43,
			"componentType":5126,
			"count":2,
			"type":"VEC3"
		},
		{
			"bufferView":44,
			"componentType":5126,
			"count":2,
			"type":"VEC3"
		},
		{
			"bufferView":45,
			"componentType":5126,
			"count":2,
			"type":"VEC4"
		},
		{
			"bufferView":46,
			"componentType":5126,
			"count":2,
			"type":"VEC3"
		},
		{
			"bufferView":47,
			"componentType":5126,
			"count":2,
			"max":[
				5.833333333333333
			],
			"min":[
				0.03333333333333333
			],
			"type":"SCALAR"
		},
		{
			"bufferView":48,
			"componentType":5126,
			"count":2,
			"type":"VEC3"
		},
		{
			"bufferView":49,
			"componentType":5126,
			"count":2,
			"type":"VEC4"
		},
		{
			"bufferView":50,
			"componentType":5126,
			"count":2,
			"type":"VEC3"
		},
		{
			"bufferView":51,
			"componentType":5126,
			"count":175,
			"max":[
				5.833333333333333
			],
			"min":[
				0.03333333333333333
			],
			"type":"SCALAR"
		},
		{
			"bufferView":52,
			"componentType":5126,
			"count":175,
			"type":"VEC3"
		},
		{
			"bufferView":53,
			"componentType":5126,
			"count":2,
			"type":"VEC4"
		},
		{
			"bufferView":54,
			"componentType":5126,
			"count":2,
			"type":"VEC3"
		},
		{
			"bufferView":55,
			"componentType":5126,
			"count":175,
			"type":"VEC3"
		},
		{
			"bufferView":56,
			"componentType":5126,
			"count":2,
			"type":"VEC4"
		},
		{
			"bufferView":57,
			"componentType":5126,
			"count":2,
			"type":"VEC3"
		}
	],
	"bufferViews":[
		{
			"buffer":0,
			"byteLength":1152,
			"byteOffset":0,
			"target":34962
		},
		{
			"buffer":0,
			"byteLength":1152,
			"byteOffset":1152,
			"target":34962
		},
		{
			"buffer":0,
			"byteLength":768,
			"byteOffset":2304,
			"target":34962
		},
		{
			"buffer":0,
			"byteLength":384,
			"byteOffset":3072,
			"target":34962
		},
		{
			"buffer":0,
			"byteLength":1536,
			"byteOffset":3456,
			"target":34962
		},
		{
			"buffer":0,
			"byteLength":384,
			"byteOffset":4992,
			"target":34963
		},
		{
			"buffer":0,
			"byteLength":216,
			"byteOffset":5376,
			"target":34962
		},
		{
			"buffer":0,
			"byteLength":216,
			"byteOffset":5592,
			"target":34962
		},
		{
			"buffer":0,
			"byteLength":144,
			"byteOffset":5808,
			"target":34962
		},
		{
			"buffer":0,
			"byteLength":72,
			"byteOffset":5952,
			"target":34962
		},
		{
			"buffer":0,
			"byteLength":288,
			"byteOffset":6024,
			"target":34962
		},
		{
			"buffer":0,
			"byteLength":96,
			"byteOffset":6312,
			"target":34963
		},
		{
			"buffer":0,
			"byteLength":384,
			"byteOffset":6408,
			"target":34962
		},
		{
			"buffer":0,
			"byteLength":384,
			"byteOffset":6792,
			"target":34962
		},
		{
			"buffer":0,
			"byteLength":256,
			"byteOffset":7176,
			"target":34962
		},
		{
			"buffer":0,
			"byteLength":128,
			"byteOffset":7432,
			"target":34962
		},
		{
			"buffer":0,
			"byteLength":512,
			"byteOffset":7560,
			"target":34962
		},
		{
			"buffer":0,
			"byteLength":192,
			"byteOffset":8072,
			"target":34963
		},
		{
			"buffer":0,
			"byteLength":192,
			"byteOffset":8264
		},
		{
			"buffer":0,
			"byteLength":288,
			"byteOffset":8456,
			"target":34962
		},
		{
			"buffer":0,
			"byteLength":288,
			"byteOffset":8744,
			"target":34962
		},
		{
			"buffer":0,
			"byteLength":192,
			"byteOffset":9032,
			"target":34962
		},
		{
			"buffer":0,
			"byteLength":72,
			"byteOffset":9224,
			"target":34963
		},
		{
			"buffer":0,
			"byteLength":288,
			"byteOffset":9296,
			"target":34962
		},
		{
			"buffer":0,
			"byteLength":288,
			"byteOffset":9584,
			"target":34962
		},
		{
			"buffer":0,
			"byteLength":192,
			"byteOffset":9872,
			"target":34962
		},
		{
			"buffer":0,
			"byteLength":72,
			"byteOffset":10064,
			"target":34963
		},
		{
			"buffer":0,
			"byteLength":8,
			"byteOffset":10136
		},
		{
			"buffer":0,
			"byteLength":24,
			"byteOffset":10144
		},
		{
			"buffer":0,
			"byteLength":32,
			"byteOffset":10168
		},
		{
			"buffer":0,
			"byteLength":24,
			"byteOffset":10200
		},
		{
			"buffer":0,
			"byteLength":24,
			"byteOffset":10224
		},
		{
			"buffer":0,
			"byteLength":32,
			"byteOffset":10248
		},
		{
			"buffer":0,
			"byteLength":24,
			"byteOffset":10280
		},
		{
			"buffer":0,
			"byteLength":24,
			"byteOffset":10304
		},
		{
			"buffer":0,
			"byteLength":32,
			"byteOffset":10328
		},
		{
			"buffer":0,
			"byteLength":24,
			"byteOffset":10360
		},
		{
			"buffer":0,
			"byteLength":8,
			"byteOffset":10384
		},
		{
			"buffer":0,
			"byteLength":24,
			"byteOffset":10392
		},
		{
			"buffer":0,
			"byteLength":32,
			"byteOffset":10416
		},
		{
			"buffer":0,
			"byteLength":24,
			"byteOffset":10448
		},
		{
			"buffer":0,
			"byteLength":24,
			"byteOffset":10472
		},
		{
			"buffer":0,
			"byteLength":32,
			"byteOffset":10496
		},
		{
			"buffer":0,
			"byteLength":24,
			"byteOffset":10528
		},
		{
			"buffer":0,
			"byteLength":24,
			"byteOffset":10552
		},
		{
			"buffer":0,
			"byteLength":32,
			"byteOffset":10576
		},
		{
			"buffer":0,
			"byteLength":24,
			"byteOffset":10608
		},
		{
			"buffer":0,
			"byteLength":8,
			"byteOffset":10632
		},
		{
			"buffer":0,
			"byteLength":24,
			"byteOffset":10640
		},
		{
			"buffer":0,
			"byteLength":32,
			"byteOffset":10664
		},
		{
			"buffer":0,
			"byteLength":24,
			"byteOffset":10696
		},
		{
			"buffer":0,
			"byteLength":700,
			"byteOffset":10720
		},
		{
			"buffer":0,
			"byteLength":2100,
			"byteOffset":11420
		},
		{
			"buffer":0,
			"byteLength":32,
			"byteOffset":13520
		},
		{
			"buffer":0,
			"byteLength":24,
			"byteOffset":13552
		},
		{
			"buffer":0,
			"byteLength":2100,
			"byteOffset":13576
		},
		{
			"buffer":0,
			"byteLength":32,
			"byteOffset":15676
		},
		{
			"buffer":0,
			"byteLength":24,
			"byteOffset":15708
		}
	],
	"samplers":[
		{
			"magFilter":9729,
			"minFilter":9987
		}
	],
	"buffers":[
		{
			"byteLength":15732,
			"uri":"door_01.bin"
		}
	]
}
