{
	"asset":{
		"generator":"Khronos glTF Blender I/O v4.4.56",
		"version":"2.0"
	},
	"scene":0,
	"scenes":[
		{
			"name":"gamer_chair",
			"nodes":[
				0,
				1,
				2
			]
		}
	],
	"nodes":[
		{
			"mesh":0,
			"name":"gamer_chair_collider"
		},
		{
			"mesh":1,
			"name":"gamer_chair"
		},
		{
			"mesh":2,
			"name":"gamer_chair.001"
		}
	],
	"materials":[
		{
			"doubleSided":true,
			"name":"Template_Palette_semirough",
			"pbrMetallicRoughness":{
				"baseColorTexture":{
					"index":0
				},
				"metallicFactor":0,
				"roughnessFactor":0.6000000238418579
			}
		},
		{
			"doubleSided":true,
			"emissiveFactor":[
				1,
				1,
				1
			],
			"emissiveTexture":{
				"index":1
			},
			"name":"Template_Palette_Emission",
			"pbrMetallicRoughness":{
				"baseColorTexture":{
					"index":2
				},
				"metallicFactor":0.20000000298023224,
				"roughnessFactor":0.2631579041481018
			}
		},
		{
			"doubleSided":true,
			"name":"Template_Palette",
			"pbrMetallicRoughness":{
				"baseColorTexture":{
					"index":3
				},
				"metallicFactor":0.20000000298023224,
				"roughnessFactor":0.2631579041481018
			}
		}
	],
	"meshes":[
		{
			"name":"Cube.132",
			"primitives":[
				{
					"attributes":{
						"POSITION":0,
						"NORMAL":1,
						"TEXCOORD_0":2,
						"TANGENT":3
					},
					"indices":4
				}
			]
		},
		{
			"name":"Plane.050",
			"primitives":[
				{
					"attributes":{
						"POSITION":5,
						"NORMAL":6,
						"TEXCOORD_0":7
					},
					"indices":8,
					"material":0
				},
				{
					"attributes":{
						"POSITION":9,
						"NORMAL":10,
						"TEXCOORD_0":11
					},
					"indices":12,
					"material":1
				},
				{
					"attributes":{
						"POSITION":13,
						"NORMAL":14,
						"TEXCOORD_0":15
					},
					"indices":16,
					"material":2
				}
			]
		},
		{
			"name":"Plane.062",
			"primitives":[
				{
					"attributes":{
						"POSITION":17,
						"NORMAL":18,
						"TEXCOORD_0":19
					},
					"indices":20,
					"material":0
				},
				{
					"attributes":{
						"POSITION":21,
						"NORMAL":22,
						"TEXCOORD_0":23
					},
					"indices":24,
					"material":1
				}
			]
		}
	],
	"textures":[
		{
			"sampler":0,
			"source":0
		},
		{
			"sampler":0,
			"source":0
		},
		{
			"sampler":0,
			"source":0
		},
		{
			"sampler":0,
			"source":0
		}
	],
	"images":[
		{
			"mimeType":"image/png",
			"name":"template_palette",
			"uri":"textures/template_palette.png"
		}
	],
	"accessors":[
		{
			"bufferView":0,
			"componentType":5126,
			"count":62,
			"max":[
				0.6713085770606995,
				2.031683921813965,
				0.5668123364448547
			],
			"min":[
				-0.6713085770606995,
				0.0008725128136575222,
				-0.6319612264633179
			],
			"type":"VEC3"
		},
		{
			"bufferView":1,
			"componentType":5126,
			"count":62,
			"type":"VEC3"
		},
		{
			"bufferView":2,
			"componentType":5126,
			"count":62,
			"type":"VEC2"
		},
		{
			"bufferView":3,
			"componentType":5126,
			"count":62,
			"type":"VEC4"
		},
		{
			"bufferView":4,
			"componentType":5123,
			"count":96,
			"type":"SCALAR"
		},
		{
			"bufferView":5,
			"componentType":5126,
			"count":458,
			"max":[
				0.6066392064094543,
				2.105809211730957,
				0.54337078332901
			],
			"min":[
				-0.6066392064094543,
				0.3966275453567505,
				-0.6130993366241455
			],
			"type":"VEC3"
		},
		{
			"bufferView":6,
			"componentType":5126,
			"count":458,
			"type":"VEC3"
		},
		{
			"bufferView":7,
			"componentType":5126,
			"count":458,
			"type":"VEC2"
		},
		{
			"bufferView":8,
			"componentType":5123,
			"count":1545,
			"type":"SCALAR"
		},
		{
			"bufferView":9,
			"componentType":5126,
			"count":90,
			"max":[
				0.6066392064094543,
				2.085845947265625,
				0.41724997758865356
			],
			"min":[
				-0.6066392064094543,
				0.3966275453567505,
				-0.43921032547950745
			],
			"type":"VEC3"
		},
		{
			"bufferView":10,
			"componentType":5126,
			"count":90,
			"type":"VEC3"
		},
		{
			"bufferView":11,
			"componentType":5126,
			"count":90,
			"type":"VEC2"
		},
		{
			"bufferView":12,
			"componentType":5123,
			"count":252,
			"type":"SCALAR"
		},
		{
			"bufferView":13,
			"componentType":5126,
			"count":120,
			"max":[
				0.39154303073883057,
				0.4471898078918457,
				0.39154303073883057
			],
			"min":[
				-0.39154303073883057,
				0,
				-0.39154303073883057
			],
			"type":"VEC3"
		},
		{
			"bufferView":14,
			"componentType":5126,
			"count":120,
			"type":"VEC3"
		},
		{
			"bufferView":15,
			"componentType":5126,
			"count":120,
			"type":"VEC2"
		},
		{
			"bufferView":16,
			"componentType":5123,
			"count":252,
			"type":"SCALAR"
		},
		{
			"bufferView":17,
			"componentType":5126,
			"count":80,
			"max":[
				0.6385478377342224,
				1.0936901569366455,
				0.3294188678264618
			],
			"min":[
				-0.6385478377342224,
				0.6131242513656616,
				-0.3294188678264618
			],
			"type":"VEC3"
		},
		{
			"bufferView":18,
			"componentType":5126,
			"count":80,
			"type":"VEC3"
		},
		{
			"bufferView":19,
			"componentType":5126,
			"count":80,
			"type":"VEC2"
		},
		{
			"bufferView":20,
			"componentType":5123,
			"count":216,
			"type":"SCALAR"
		},
		{
			"bufferView":21,
			"componentType":5126,
			"count":80,
			"max":[
				0.6385478377342224,
				1.0936901569366455,
				0.3294188678264618
			],
			"min":[
				-0.6385478377342224,
				0.6131242513656616,
				-0.3294188678264618
			],
			"type":"VEC3"
		},
		{
			"bufferView":22,
			"componentType":5126,
			"count":80,
			"type":"VEC3"
		},
		{
			"bufferView":23,
			"componentType":5126,
			"count":80,
			"type":"VEC2"
		},
		{
			"bufferView":24,
			"componentType":5123,
			"count":240,
			"type":"SCALAR"
		}
	],
	"bufferViews":[
		{
			"buffer":0,
			"byteLength":744,
			"byteOffset":0,
			"target":34962
		},
		{
			"buffer":0,
			"byteLength":744,
			"byteOffset":744,
			"target":34962
		},
		{
			"buffer":0,
			"byteLength":496,
			"byteOffset":1488,
			"target":34962
		},
		{
			"buffer":0,
			"byteLength":992,
			"byteOffset":1984,
			"target":34962
		},
		{
			"buffer":0,
			"byteLength":192,
			"byteOffset":2976,
			"target":34963
		},
		{
			"buffer":0,
			"byteLength":5496,
			"byteOffset":3168,
			"target":34962
		},
		{
			"buffer":0,
			"byteLength":5496,
			"byteOffset":8664,
			"target":34962
		},
		{
			"buffer":0,
			"byteLength":3664,
			"byteOffset":14160,
			"target":34962
		},
		{
			"buffer":0,
			"byteLength":3090,
			"byteOffset":17824,
			"target":34963
		},
		{
			"buffer":0,
			"byteLength":1080,
			"byteOffset":20916,
			"target":34962
		},
		{
			"buffer":0,
			"byteLength":1080,
			"byteOffset":21996,
			"target":34962
		},
		{
			"buffer":0,
			"byteLength":720,
			"byteOffset":23076,
			"target":34962
		},
		{
			"buffer":0,
			"byteLength":504,
			"byteOffset":23796,
			"target":34963
		},
		{
			"buffer":0,
			"byteLength":1440,
			"byteOffset":24300,
			"target":34962
		},
		{
			"buffer":0,
			"byteLength":1440,
			"byteOffset":25740,
			"target":34962
		},
		{
			"buffer":0,
			"byteLength":960,
			"byteOffset":27180,
			"target":34962
		},
		{
			"buffer":0,
			"byteLength":504,
			"byteOffset":28140,
			"target":34963
		},
		{
			"buffer":0,
			"byteLength":960,
			"byteOffset":28644,
			"target":34962
		},
		{
			"buffer":0,
			"byteLength":960,
			"byteOffset":29604,
			"target":34962
		},
		{
			"buffer":0,
			"byteLength":640,
			"byteOffset":30564,
			"target":34962
		},
		{
			"buffer":0,
			"byteLength":432,
			"byteOffset":31204,
			"target":34963
		},
		{
			"buffer":0,
			"byteLength":960,
			"byteOffset":31636,
			"target":34962
		},
		{
			"buffer":0,
			"byteLength":960,
			"byteOffset":32596,
			"target":34962
		},
		{
			"buffer":0,
			"byteLength":640,
			"byteOffset":33556,
			"target":34962
		},
		{
			"buffer":0,
			"byteLength":480,
			"byteOffset":34196,
			"target":34963
		}
	],
	"samplers":[
		{
			"magFilter":9729,
			"minFilter":9987
		}
	],
	"buffers":[
		{
			"byteLength":34676,
			"uri":"gamer_chair.bin"
		}
	]
}
