{
	"asset":{
		"generator":"Khronos glTF Blender I/O v4.4.56",
		"version":"2.0"
	},
	"scene":0,
	"scenes":[
		{
			"name":"gamer_chair",
			"nodes":[
				0,
				1,
				2
			]
		}
	],
	"nodes":[
		{
			"mesh":0,
			"name":"gamer_chair_collider"
		},
		{
			"mesh":1,
			"name":"gamer_chair"
		},
		{
			"mesh":2,
			"name":"gamer_chair.001"
		}
	],
	"materials":[
		{
			"doubleSided":true,
			"name":"Template_Palette_semirough",
			"pbrMetallicRoughness":{
				"baseColorTexture":{
					"index":0
				},
				"metallicFactor":0,
				"roughnessFactor":0.6000000238418579
			}
		},
		{
			"doubleSided":true,
			"emissiveFactor":[
				1,
				1,
				1
			],
			"emissiveTexture":{
				"index":1
			},
			"name":"Template_Palette_Emission",
			"pbrMetallicRoughness":{
				"baseColorTexture":{
					"index":2
				},
				"metallicFactor":0.20000000298023224,
				"roughnessFactor":0.2631579041481018
			}
		},
		{
			"doubleSided":true,
			"name":"Template_Palette",
			"pbrMetallicRoughness":{
				"baseColorTexture":{
					"index":3
				},
				"metallicFactor":0.20000000298023224,
				"roughnessFactor":0.2631579041481018
			}
		}
	],
	"meshes":[
		{
			"name":"Cube.132",
			"primitives":[
				{
					"attributes":{
						"POSITION":0,
						"NORMAL":1,
						"TEXCOORD_0":2,
						"TANGENT":3
					},
					"indices":4
				}
			]
		},
		{
			"name":"Plane.050",
			"primitives":[
				{
					"attributes":{
						"POSITION":5,
						"NORMAL":6,
						"TEXCOORD_0":7
					},
					"indices":8,
					"material":0
				},
				{
					"attributes":{
						"POSITION":9,
						"NORMAL":10,
						"TEXCOORD_0":11
					},
					"indices":12,
					"material":1
				},
				{
					"attributes":{
						"POSITION":13,
						"NORMAL":14,
						"TEXCOORD_0":15
					},
					"indices":16,
					"material":2
				}
			]
		},
		{
			"name":"Plane.062",
			"primitives":[
				{
					"attributes":{
						"POSITION":17,
						"NORMAL":18,
						"TEXCOORD_0":19
					},
					"indices":20,
					"material":0
				},
				{
					"attributes":{
						"POSITION":21,
						"NORMAL":22,
						"TEXCOORD_0":23
					},
					"indices":24,
					"material":1
				}
			]
		}
	],
	"textures":[
		{
			"sampler":0,
			"source":0
		},
		{
			"sampler":0,
			"source":0
		},
		{
			"sampler":0,
			"source":0
		},
		{
			"sampler":0,
			"source":0
		}
	],
	"images":[
		{
			"mimeType":"image/png",
			"name":"template_palette",
			"uri":"textures/template_palette.png"
		}
	],
	"accessors":[
		{
			"bufferView":0,
			"componentType":5126,
			"count":62,
			"max":[
				0.5034814476966858,
				1.5237629413604736,
				-0.046373382210731506
			],
			"min":[
				-0.5034814476966858,
				0.0006543846102431417,
				-0.9454535245895386
			],
			"type":"VEC3"
		},
		{
			"bufferView":1,
			"componentType":5126,
			"count":62,
			"type":"VEC3"
		},
		{
			"bufferView":2,
			"componentType":5126,
			"count":62,
			"type":"VEC2"
		},
		{
			"bufferView":3,
			"componentType":5126,
			"count":62,
			"type":"VEC4"
		},
		{
			"bufferView":4,
			"componentType":5123,
			"count":96,
			"type":"SCALAR"
		},
		{
			"bufferView":5,
			"componentType":5126,
			"count":457,
			"max":[
				0.45497941970825195,
				1.5793569087982178,
				-0.06395454704761505
			],
			"min":[
				-0.45497941970825195,
				0.29747065901756287,
				-0.9313071370124817
			],
			"type":"VEC3"
		},
		{
			"bufferView":6,
			"componentType":5126,
			"count":457,
			"type":"VEC3"
		},
		{
			"bufferView":7,
			"componentType":5126,
			"count":457,
			"type":"VEC2"
		},
		{
			"bufferView":8,
			"componentType":5123,
			"count":1533,
			"type":"SCALAR"
		},
		{
			"bufferView":9,
			"componentType":5126,
			"count":90,
			"max":[
				0.45497941970825195,
				1.5643844604492188,
				-0.15854515135288239
			],
			"min":[
				-0.45497941970825195,
				0.29747065901756287,
				-0.8008903861045837
			],
			"type":"VEC3"
		},
		{
			"bufferView":10,
			"componentType":5126,
			"count":90,
			"type":"VEC3"
		},
		{
			"bufferView":11,
			"componentType":5126,
			"count":90,
			"type":"VEC2"
		},
		{
			"bufferView":12,
			"componentType":5123,
			"count":252,
			"type":"SCALAR"
		},
		{
			"bufferView":13,
			"componentType":5126,
			"count":104,
			"max":[
				0.2936572730541229,
				0.3353923559188843,
				-0.17782537639141083
			],
			"min":[
				-0.2936572730541229,
				0,
				-0.7651399374008179
			],
			"type":"VEC3"
		},
		{
			"bufferView":14,
			"componentType":5126,
			"count":104,
			"type":"VEC3"
		},
		{
			"bufferView":15,
			"componentType":5126,
			"count":104,
			"type":"VEC2"
		},
		{
			"bufferView":16,
			"componentType":5123,
			"count":210,
			"type":"SCALAR"
		},
		{
			"bufferView":17,
			"componentType":5126,
			"count":80,
			"max":[
				0.4789108633995056,
				0.8202676177024841,
				-0.224418506026268
			],
			"min":[
				-0.4789108633995056,
				0.4598431885242462,
				-0.7185467481613159
			],
			"type":"VEC3"
		},
		{
			"bufferView":18,
			"componentType":5126,
			"count":80,
			"type":"VEC3"
		},
		{
			"bufferView":19,
			"componentType":5126,
			"count":80,
			"type":"VEC2"
		},
		{
			"bufferView":20,
			"componentType":5123,
			"count":216,
			"type":"SCALAR"
		},
		{
			"bufferView":21,
			"componentType":5126,
			"count":80,
			"max":[
				0.4789108633995056,
				0.8202676177024841,
				-0.224418506026268
			],
			"min":[
				-0.4789108633995056,
				0.4598431885242462,
				-0.7185467481613159
			],
			"type":"VEC3"
		},
		{
			"bufferView":22,
			"componentType":5126,
			"count":80,
			"type":"VEC3"
		},
		{
			"bufferView":23,
			"componentType":5126,
			"count":80,
			"type":"VEC2"
		},
		{
			"bufferView":24,
			"componentType":5123,
			"count":240,
			"type":"SCALAR"
		}
	],
	"bufferViews":[
		{
			"buffer":0,
			"byteLength":744,
			"byteOffset":0,
			"target":34962
		},
		{
			"buffer":0,
			"byteLength":744,
			"byteOffset":744,
			"target":34962
		},
		{
			"buffer":0,
			"byteLength":496,
			"byteOffset":1488,
			"target":34962
		},
		{
			"buffer":0,
			"byteLength":992,
			"byteOffset":1984,
			"target":34962
		},
		{
			"buffer":0,
			"byteLength":192,
			"byteOffset":2976,
			"target":34963
		},
		{
			"buffer":0,
			"byteLength":5484,
			"byteOffset":3168,
			"target":34962
		},
		{
			"buffer":0,
			"byteLength":5484,
			"byteOffset":8652,
			"target":34962
		},
		{
			"buffer":0,
			"byteLength":3656,
			"byteOffset":14136,
			"target":34962
		},
		{
			"buffer":0,
			"byteLength":3066,
			"byteOffset":17792,
			"target":34963
		},
		{
			"buffer":0,
			"byteLength":1080,
			"byteOffset":20860,
			"target":34962
		},
		{
			"buffer":0,
			"byteLength":1080,
			"byteOffset":21940,
			"target":34962
		},
		{
			"buffer":0,
			"byteLength":720,
			"byteOffset":23020,
			"target":34962
		},
		{
			"buffer":0,
			"byteLength":504,
			"byteOffset":23740,
			"target":34963
		},
		{
			"buffer":0,
			"byteLength":1248,
			"byteOffset":24244,
			"target":34962
		},
		{
			"buffer":0,
			"byteLength":1248,
			"byteOffset":25492,
			"target":34962
		},
		{
			"buffer":0,
			"byteLength":832,
			"byteOffset":26740,
			"target":34962
		},
		{
			"buffer":0,
			"byteLength":420,
			"byteOffset":27572,
			"target":34963
		},
		{
			"buffer":0,
			"byteLength":960,
			"byteOffset":27992,
			"target":34962
		},
		{
			"buffer":0,
			"byteLength":960,
			"byteOffset":28952,
			"target":34962
		},
		{
			"buffer":0,
			"byteLength":640,
			"byteOffset":29912,
			"target":34962
		},
		{
			"buffer":0,
			"byteLength":432,
			"byteOffset":30552,
			"target":34963
		},
		{
			"buffer":0,
			"byteLength":960,
			"byteOffset":30984,
			"target":34962
		},
		{
			"buffer":0,
			"byteLength":960,
			"byteOffset":31944,
			"target":34962
		},
		{
			"buffer":0,
			"byteLength":640,
			"byteOffset":32904,
			"target":34962
		},
		{
			"buffer":0,
			"byteLength":480,
			"byteOffset":33544,
			"target":34963
		}
	],
	"samplers":[
		{
			"magFilter":9729,
			"minFilter":9987
		}
	],
	"buffers":[
		{
			"byteLength":34024,
			"uri":"gamer_chair.bin"
		}
	]
}
