{
	"asset":{
		"generator":"Khronos glTF Blender I/O v4.4.56",
		"version":"2.0"
	},
	"scene":0,
	"scenes":[
		{
			"name":"streamer_mic",
			"nodes":[
				4
			]
		}
	],
	"nodes":[
		{
			"name":"power",
			"rotation":[
				0.7071067094802856,
				-2.8378966021591623e-07,
				-2.8378966021591623e-07,
				0.7071068286895752
			],
			"scale":[
				1,
				0.9999999403953552,
				0.9999999403953552
			],
			"translation":[
				1.0019949674606323,
				1.6779756546020508,
				0.06624078005552292
			]
		},
		{
			"name":"rotation",
			"rotation":[
				1.9472800261155498e-07,
				8.906172155320746e-08,
				-0.7071067690849304,
				0.7071067690849304
			],
			"translation":[
				1,
				1.8206276893615723,
				1.3969838619232178e-09
			]
		},
		{
			"children":[
				0,
				1
			],
			"name":"root"
		},
		{
			"mesh":0,
			"name":"Mic",
			"skin":0
		},
		{
			"children":[
				3,
				2
			],
			"name":"Armature_Mic"
		}
	],
	"animations":[
		{
			"channels":[
				{
					"sampler":0,
					"target":{
						"node":2,
						"path":"translation"
					}
				},
				{
					"sampler":1,
					"target":{
						"node":2,
						"path":"rotation"
					}
				},
				{
					"sampler":2,
					"target":{
						"node":2,
						"path":"scale"
					}
				},
				{
					"sampler":3,
					"target":{
						"node":0,
						"path":"translation"
					}
				},
				{
					"sampler":4,
					"target":{
						"node":0,
						"path":"rotation"
					}
				},
				{
					"sampler":5,
					"target":{
						"node":0,
						"path":"scale"
					}
				},
				{
					"sampler":6,
					"target":{
						"node":1,
						"path":"translation"
					}
				},
				{
					"sampler":7,
					"target":{
						"node":1,
						"path":"rotation"
					}
				},
				{
					"sampler":8,
					"target":{
						"node":1,
						"path":"scale"
					}
				}
			],
			"name":"Mic",
			"samplers":[
				{
					"input":25,
					"interpolation":"STEP",
					"output":26
				},
				{
					"input":25,
					"interpolation":"STEP",
					"output":27
				},
				{
					"input":25,
					"interpolation":"STEP",
					"output":28
				},
				{
					"input":25,
					"interpolation":"STEP",
					"output":29
				},
				{
					"input":25,
					"interpolation":"STEP",
					"output":30
				},
				{
					"input":31,
					"interpolation":"LINEAR",
					"output":32
				},
				{
					"input":25,
					"interpolation":"STEP",
					"output":33
				},
				{
					"input":31,
					"interpolation":"LINEAR",
					"output":34
				},
				{
					"input":25,
					"interpolation":"STEP",
					"output":35
				}
			]
		}
	],
	"materials":[
		{
			"doubleSided":true,
			"name":"Template_Palette_metal",
			"pbrMetallicRoughness":{
				"baseColorTexture":{
					"index":0
				},
				"roughnessFactor":0.25
			}
		},
		{
			"doubleSided":true,
			"emissiveFactor":[
				1,
				1,
				1
			],
			"emissiveTexture":{
				"index":1
			},
			"name":"Template_Palette_Emission",
			"pbrMetallicRoughness":{
				"baseColorTexture":{
					"index":2
				},
				"metallicFactor":0.20000000298023224,
				"roughnessFactor":0.2631579041481018
			}
		},
		{
			"alphaMode":"BLEND",
			"doubleSided":true,
			"name":"hexagons_alpha",
			"pbrMetallicRoughness":{
				"baseColorFactor":[
					0,
					0,
					0,
					1
				],
				"baseColorTexture":{
					"index":3
				},
				"metallicFactor":0,
				"roughnessFactor":0.5
			}
		},
		{
			"doubleSided":true,
			"name":"Template_Palette_semirough",
			"pbrMetallicRoughness":{
				"baseColorTexture":{
					"index":4
				},
				"metallicFactor":0,
				"roughnessFactor":0.6000000238418579
			}
		}
	],
	"meshes":[
		{
			"name":"Torus.002",
			"primitives":[
				{
					"attributes":{
						"POSITION":0,
						"NORMAL":1,
						"TEXCOORD_0":2,
						"JOINTS_0":3,
						"WEIGHTS_0":4
					},
					"indices":5,
					"material":0
				},
				{
					"attributes":{
						"POSITION":6,
						"NORMAL":7,
						"TEXCOORD_0":8,
						"JOINTS_0":9,
						"WEIGHTS_0":10
					},
					"indices":11,
					"material":1
				},
				{
					"attributes":{
						"POSITION":12,
						"NORMAL":13,
						"TEXCOORD_0":14,
						"JOINTS_0":15,
						"WEIGHTS_0":16
					},
					"indices":17,
					"material":2
				},
				{
					"attributes":{
						"POSITION":18,
						"NORMAL":19,
						"TEXCOORD_0":20,
						"JOINTS_0":21,
						"WEIGHTS_0":22
					},
					"indices":23,
					"material":3
				}
			]
		}
	],
	"textures":[
		{
			"sampler":0,
			"source":0
		},
		{
			"sampler":0,
			"source":0
		},
		{
			"sampler":0,
			"source":0
		},
		{
			"sampler":0,
			"source":1
		},
		{
			"sampler":0,
			"source":0
		}
	],
	"images":[
		{
			"mimeType":"image/png",
			"name":"template_palette",
			"uri":"textures/template_palette.png"
		},
		{
			"mimeType":"image/png",
			"name":"hexagons_mic_mask",
			"uri":"textures/hexagons_mic_mask.png"
		}
	],
	"skins":[
		{
			"inverseBindMatrices":24,
			"joints":[
				2,
				0,
				1
			],
			"name":"Armature_Mic"
		}
	],
	"accessors":[
		{
			"bufferView":0,
			"componentType":5126,
			"count":224,
			"max":[
				0.8441399335861206,
				1.6462695598602295,
				0.9679935574531555
			],
			"min":[
				-0.8440279364585876,
				0.022813081741333008,
				-0.4969710111618042
			],
			"type":"VEC3"
		},
		{
			"bufferView":1,
			"componentType":5126,
			"count":224,
			"type":"VEC3"
		},
		{
			"bufferView":2,
			"componentType":5126,
			"count":224,
			"type":"VEC2"
		},
		{
			"bufferView":3,
			"componentType":5121,
			"count":224,
			"type":"VEC4"
		},
		{
			"bufferView":4,
			"componentType":5126,
			"count":224,
			"type":"VEC4"
		},
		{
			"bufferView":5,
			"componentType":5123,
			"count":588,
			"type":"SCALAR"
		},
		{
			"bufferView":6,
			"componentType":5126,
			"count":56,
			"max":[
				1.0565928220748901,
				1.9123647212982178,
				0.07762910425662994
			],
			"min":[
				0.9434071779251099,
				1.6648815870285034,
				-0.05659284442663193
			],
			"type":"VEC3"
		},
		{
			"bufferView":7,
			"componentType":5126,
			"count":56,
			"type":"VEC3"
		},
		{
			"bufferView":8,
			"componentType":5126,
			"count":56,
			"type":"VEC2"
		},
		{
			"bufferView":9,
			"componentType":5121,
			"count":56,
			"type":"VEC4"
		},
		{
			"bufferView":10,
			"componentType":5126,
			"count":56,
			"type":"VEC4"
		},
		{
			"bufferView":11,
			"componentType":5123,
			"count":162,
			"type":"SCALAR"
		},
		{
			"bufferView":12,
			"componentType":5126,
			"count":34,
			"max":[
				1.0659773349761963,
				1.9123647212982178,
				0.06597736477851868
			],
			"min":[
				0.9340226054191589,
				1.7288898229599,
				-0.06597736477851868
			],
			"type":"VEC3"
		},
		{
			"bufferView":13,
			"componentType":5126,
			"count":34,
			"type":"VEC3"
		},
		{
			"bufferView":14,
			"componentType":5126,
			"count":34,
			"type":"VEC2"
		},
		{
			"bufferView":15,
			"componentType":5121,
			"count":34,
			"type":"VEC4"
		},
		{
			"bufferView":16,
			"componentType":5126,
			"count":34,
			"type":"VEC4"
		},
		{
			"bufferView":17,
			"componentType":5123,
			"count":96,
			"type":"SCALAR"
		},
		{
			"bufferView":18,
			"componentType":5126,
			"count":840,
			"max":[
				1.1781116724014282,
				1.9746508598327637,
				0.9512927532196045
			],
			"min":[
				-0.8272127509117126,
				0.006839275360107422,
				-0.4914267063140869
			],
			"type":"VEC3"
		},
		{
			"bufferView":19,
			"componentType":5126,
			"count":840,
			"type":"VEC3"
		},
		{
			"bufferView":20,
			"componentType":5126,
			"count":840,
			"type":"VEC2"
		},
		{
			"bufferView":21,
			"componentType":5121,
			"count":840,
			"type":"VEC4"
		},
		{
			"bufferView":22,
			"componentType":5126,
			"count":840,
			"type":"VEC4"
		},
		{
			"bufferView":23,
			"componentType":5123,
			"count":2598,
			"type":"SCALAR"
		},
		{
			"bufferView":24,
			"componentType":5126,
			"count":3,
			"type":"MAT4"
		},
		{
			"bufferView":25,
			"componentType":5126,
			"count":2,
			"max":[
				5
			],
			"min":[
				0.03333333333333333
			],
			"type":"SCALAR"
		},
		{
			"bufferView":26,
			"componentType":5126,
			"count":2,
			"type":"VEC3"
		},
		{
			"bufferView":27,
			"componentType":5126,
			"count":2,
			"type":"VEC4"
		},
		{
			"bufferView":28,
			"componentType":5126,
			"count":2,
			"type":"VEC3"
		},
		{
			"bufferView":29,
			"componentType":5126,
			"count":2,
			"type":"VEC3"
		},
		{
			"bufferView":30,
			"componentType":5126,
			"count":2,
			"type":"VEC4"
		},
		{
			"bufferView":31,
			"componentType":5126,
			"count":150,
			"max":[
				5
			],
			"min":[
				0.03333333333333333
			],
			"type":"SCALAR"
		},
		{
			"bufferView":32,
			"componentType":5126,
			"count":150,
			"type":"VEC3"
		},
		{
			"bufferView":33,
			"componentType":5126,
			"count":2,
			"type":"VEC3"
		},
		{
			"bufferView":34,
			"componentType":5126,
			"count":150,
			"type":"VEC4"
		},
		{
			"bufferView":35,
			"componentType":5126,
			"count":2,
			"type":"VEC3"
		}
	],
	"bufferViews":[
		{
			"buffer":0,
			"byteLength":2688,
			"byteOffset":0,
			"target":34962
		},
		{
			"buffer":0,
			"byteLength":2688,
			"byteOffset":2688,
			"target":34962
		},
		{
			"buffer":0,
			"byteLength":1792,
			"byteOffset":5376,
			"target":34962
		},
		{
			"buffer":0,
			"byteLength":896,
			"byteOffset":7168,
			"target":34962
		},
		{
			"buffer":0,
			"byteLength":3584,
			"byteOffset":8064,
			"target":34962
		},
		{
			"buffer":0,
			"byteLength":1176,
			"byteOffset":11648,
			"target":34963
		},
		{
			"buffer":0,
			"byteLength":672,
			"byteOffset":12824,
			"target":34962
		},
		{
			"buffer":0,
			"byteLength":672,
			"byteOffset":13496,
			"target":34962
		},
		{
			"buffer":0,
			"byteLength":448,
			"byteOffset":14168,
			"target":34962
		},
		{
			"buffer":0,
			"byteLength":224,
			"byteOffset":14616,
			"target":34962
		},
		{
			"buffer":0,
			"byteLength":896,
			"byteOffset":14840,
			"target":34962
		},
		{
			"buffer":0,
			"byteLength":324,
			"byteOffset":15736,
			"target":34963
		},
		{
			"buffer":0,
			"byteLength":408,
			"byteOffset":16060,
			"target":34962
		},
		{
			"buffer":0,
			"byteLength":408,
			"byteOffset":16468,
			"target":34962
		},
		{
			"buffer":0,
			"byteLength":272,
			"byteOffset":16876,
			"target":34962
		},
		{
			"buffer":0,
			"byteLength":136,
			"byteOffset":17148,
			"target":34962
		},
		{
			"buffer":0,
			"byteLength":544,
			"byteOffset":17284,
			"target":34962
		},
		{
			"buffer":0,
			"byteLength":192,
			"byteOffset":17828,
			"target":34963
		},
		{
			"buffer":0,
			"byteLength":10080,
			"byteOffset":18020,
			"target":34962
		},
		{
			"buffer":0,
			"byteLength":10080,
			"byteOffset":28100,
			"target":34962
		},
		{
			"buffer":0,
			"byteLength":6720,
			"byteOffset":38180,
			"target":34962
		},
		{
			"buffer":0,
			"byteLength":3360,
			"byteOffset":44900,
			"target":34962
		},
		{
			"buffer":0,
			"byteLength":13440,
			"byteOffset":48260,
			"target":34962
		},
		{
			"buffer":0,
			"byteLength":5196,
			"byteOffset":61700,
			"target":34963
		},
		{
			"buffer":0,
			"byteLength":192,
			"byteOffset":66896
		},
		{
			"buffer":0,
			"byteLength":8,
			"byteOffset":67088
		},
		{
			"buffer":0,
			"byteLength":24,
			"byteOffset":67096
		},
		{
			"buffer":0,
			"byteLength":32,
			"byteOffset":67120
		},
		{
			"buffer":0,
			"byteLength":24,
			"byteOffset":67152
		},
		{
			"buffer":0,
			"byteLength":24,
			"byteOffset":67176
		},
		{
			"buffer":0,
			"byteLength":32,
			"byteOffset":67200
		},
		{
			"buffer":0,
			"byteLength":600,
			"byteOffset":67232
		},
		{
			"buffer":0,
			"byteLength":1800,
			"byteOffset":67832
		},
		{
			"buffer":0,
			"byteLength":24,
			"byteOffset":69632
		},
		{
			"buffer":0,
			"byteLength":2400,
			"byteOffset":69656
		},
		{
			"buffer":0,
			"byteLength":24,
			"byteOffset":72056
		}
	],
	"samplers":[
		{
			"magFilter":9729,
			"minFilter":9987
		}
	],
	"buffers":[
		{
			"byteLength":72080,
			"uri":"mic.bin"
		}
	]
}
