{
	"asset":{
		"generator":"Khronos glTF Blender I/O v4.4.56",
		"version":"2.0"
	},
	"scene":0,
	"scenes":[
		{
			"name":"palm",
			"nodes":[
				0,
				1
			]
		}
	],
	"nodes":[
		{
			"mesh":0,
			"name":"palm_collider"
		},
		{
			"mesh":1,
			"name":"palm"
		}
	],
	"materials":[
		{
			"name":"Template_Palette_bfculling",
			"pbrMetallicRoughness":{
				"baseColorTexture":{
					"index":0
				},
				"metallicFactor":0.20000000298023224,
				"roughnessFactor":0.2631579041481018
			}
		}
	],
	"meshes":[
		{
			"name":"Plane.053",
			"primitives":[
				{
					"attributes":{
						"POSITION":0,
						"NORMAL":1
					},
					"indices":2
				}
			]
		},
		{
			"name":"Plane.054",
			"primitives":[
				{
					"attributes":{
						"POSITION":3,
						"NORMAL":4,
						"TEXCOORD_0":5
					},
					"indices":6,
					"material":0
				}
			]
		}
	],
	"textures":[
		{
			"sampler":0,
			"source":0
		}
	],
	"images":[
		{
			"mimeType":"image/png",
			"name":"template_palette",
			"uri":"textures/template_palette.png"
		}
	],
	"accessors":[
		{
			"bufferView":0,
			"componentType":5126,
			"count":62,
			"max":[
				0.43654850125312805,
				4.451052188873291,
				0.4196750521659851
			],
			"min":[
				-0.3364907503128052,
				0.003570442320778966,
				-0.23938795924186707
			],
			"type":"VEC3"
		},
		{
			"bufferView":1,
			"componentType":5126,
			"count":62,
			"type":"VEC3"
		},
		{
			"bufferView":2,
			"componentType":5123,
			"count":84,
			"type":"SCALAR"
		},
		{
			"bufferView":3,
			"componentType":5126,
			"count":1020,
			"max":[
				2.201305866241455,
				5.076730251312256,
				1.6199650764465332
			],
			"min":[
				-1.1880885362625122,
				0.003570442320778966,
				-2.0543529987335205
			],
			"type":"VEC3"
		},
		{
			"bufferView":4,
			"componentType":5126,
			"count":1020,
			"type":"VEC3"
		},
		{
			"bufferView":5,
			"componentType":5126,
			"count":1020,
			"type":"VEC2"
		},
		{
			"bufferView":6,
			"componentType":5123,
			"count":1020,
			"type":"SCALAR"
		}
	],
	"bufferViews":[
		{
			"buffer":0,
			"byteLength":744,
			"byteOffset":0,
			"target":34962
		},
		{
			"buffer":0,
			"byteLength":744,
			"byteOffset":744,
			"target":34962
		},
		{
			"buffer":0,
			"byteLength":168,
			"byteOffset":1488,
			"target":34963
		},
		{
			"buffer":0,
			"byteLength":12240,
			"byteOffset":1656,
			"target":34962
		},
		{
			"buffer":0,
			"byteLength":12240,
			"byteOffset":13896,
			"target":34962
		},
		{
			"buffer":0,
			"byteLength":8160,
			"byteOffset":26136,
			"target":34962
		},
		{
			"buffer":0,
			"byteLength":2040,
			"byteOffset":34296,
			"target":34963
		}
	],
	"samplers":[
		{
			"magFilter":9729,
			"minFilter":9987
		}
	],
	"buffers":[
		{
			"byteLength":36336,
			"uri":"palm.bin"
		}
	]
}
