{
	"asset":{
		"generator":"Khronos glTF Blender I/O v4.4.56",
		"version":"2.0"
	},
	"scene":0,
	"scenes":[
		{
			"name":"panel_purple",
			"nodes":[
				0,
				1,
				2,
				3,
				4
			]
		}
	],
	"nodes":[
		{
			"mesh":0,
			"name":"Plane.001"
		},
		{
			"mesh":1,
			"name":"Neones"
		},
		{
			"mesh":2,
			"name":"Plane.002"
		},
		{
			"mesh":3,
			"name":"Panel_01_collider"
		},
		{
			"mesh":4,
			"name":"Details.001"
		}
	],
	"materials":[
		{
			"doubleSided":true,
			"name":"Template_Palette",
			"pbrMetallicRoughness":{
				"baseColorTexture":{
					"index":0
				},
				"metallicFactor":0.20000000298023224,
				"roughnessFactor":0.2631579041481018
			}
		},
		{
			"doubleSided":true,
			"emissiveFactor":[
				1,
				1,
				1
			],
			"emissiveTexture":{
				"index":1
			},
			"name":"Template_Palette_Emission",
			"pbrMetallicRoughness":{
				"baseColorTexture":{
					"index":2
				},
				"metallicFactor":0.20000000298023224,
				"roughnessFactor":0.2631579041481018
			}
		}
	],
	"meshes":[
		{
			"name":"Plane.001",
			"primitives":[
				{
					"attributes":{
						"POSITION":0,
						"NORMAL":1,
						"TEXCOORD_0":2
					},
					"indices":3,
					"material":0
				}
			]
		},
		{
			"name":"Plane.002",
			"primitives":[
				{
					"attributes":{
						"POSITION":4,
						"NORMAL":5,
						"TEXCOORD_0":6
					},
					"indices":7,
					"material":1
				}
			]
		},
		{
			"name":"Plane.003",
			"primitives":[
				{
					"attributes":{
						"POSITION":8,
						"NORMAL":9,
						"TEXCOORD_0":10
					},
					"indices":11,
					"material":0
				}
			]
		},
		{
			"name":"Cube",
			"primitives":[
				{
					"attributes":{
						"POSITION":12,
						"NORMAL":13,
						"TEXCOORD_0":14
					},
					"indices":15
				}
			]
		},
		{
			"name":"Plane.004",
			"primitives":[
				{
					"attributes":{
						"POSITION":16,
						"NORMAL":17,
						"TEXCOORD_0":18
					},
					"indices":19,
					"material":0
				}
			]
		}
	],
	"textures":[
		{
			"sampler":0,
			"source":0
		},
		{
			"sampler":0,
			"source":0
		},
		{
			"sampler":0,
			"source":0
		}
	],
	"images":[
		{
			"mimeType":"image/png",
			"name":"template_palette",
			"uri":"textures/template_palette.png"
		}
	],
	"accessors":[
		{
			"bufferView":0,
			"componentType":5126,
			"count":77,
			"max":[
				4,
				4,
				0.1506536304950714
			],
			"min":[
				-2.384185791015625e-07,
				0,
				-0.09999864548444748
			],
			"type":"VEC3"
		},
		{
			"bufferView":1,
			"componentType":5126,
			"count":77,
			"type":"VEC3"
		},
		{
			"bufferView":2,
			"componentType":5126,
			"count":77,
			"type":"VEC2"
		},
		{
			"bufferView":3,
			"componentType":5123,
			"count":162,
			"type":"SCALAR"
		},
		{
			"bufferView":4,
			"componentType":5126,
			"count":48,
			"max":[
				3.901660680770874,
				3.930576801300049,
				0.05292912572622299
			],
			"min":[
				0.09833872318267822,
				0.19200170040130615,
				-0.012494072318077087
			],
			"type":"VEC3"
		},
		{
			"bufferView":5,
			"componentType":5126,
			"count":48,
			"type":"VEC3"
		},
		{
			"bufferView":6,
			"componentType":5126,
			"count":48,
			"type":"VEC2"
		},
		{
			"bufferView":7,
			"componentType":5123,
			"count":72,
			"type":"SCALAR"
		},
		{
			"bufferView":8,
			"componentType":5126,
			"count":6,
			"max":[
				3.9000000953674316,
				3.901585102081299,
				-0.09999864548444748
			],
			"min":[
				0.09999978542327881,
				0.18007004261016846,
				-0.09999864548444748
			],
			"type":"VEC3"
		},
		{
			"bufferView":9,
			"componentType":5126,
			"count":6,
			"type":"VEC3"
		},
		{
			"bufferView":10,
			"componentType":5126,
			"count":6,
			"type":"VEC2"
		},
		{
			"bufferView":11,
			"componentType":5123,
			"count":12,
			"type":"SCALAR"
		},
		{
			"bufferView":12,
			"componentType":5126,
			"count":24,
			"max":[
				4,
				4,
				0.09979384392499924
			],
			"min":[
				-2.384185791015625e-07,
				0,
				-0.09979112446308136
			],
			"type":"VEC3"
		},
		{
			"bufferView":13,
			"componentType":5126,
			"count":24,
			"type":"VEC3"
		},
		{
			"bufferView":14,
			"componentType":5126,
			"count":24,
			"type":"VEC2"
		},
		{
			"bufferView":15,
			"componentType":5123,
			"count":36,
			"type":"SCALAR"
		},
		{
			"bufferView":16,
			"componentType":5126,
			"count":240,
			"max":[
				4,
				3.901585340499878,
				1.4454126358032227e-06
			],
			"min":[
				0,
				0.18007004261016846,
				-0.07979558408260345
			],
			"type":"VEC3"
		},
		{
			"bufferView":17,
			"componentType":5126,
			"count":240,
			"type":"VEC3"
		},
		{
			"bufferView":18,
			"componentType":5126,
			"count":240,
			"type":"VEC2"
		},
		{
			"bufferView":19,
			"componentType":5123,
			"count":480,
			"type":"SCALAR"
		}
	],
	"bufferViews":[
		{
			"buffer":0,
			"byteLength":924,
			"byteOffset":0,
			"target":34962
		},
		{
			"buffer":0,
			"byteLength":924,
			"byteOffset":924,
			"target":34962
		},
		{
			"buffer":0,
			"byteLength":616,
			"byteOffset":1848,
			"target":34962
		},
		{
			"buffer":0,
			"byteLength":324,
			"byteOffset":2464,
			"target":34963
		},
		{
			"buffer":0,
			"byteLength":576,
			"byteOffset":2788,
			"target":34962
		},
		{
			"buffer":0,
			"byteLength":576,
			"byteOffset":3364,
			"target":34962
		},
		{
			"buffer":0,
			"byteLength":384,
			"byteOffset":3940,
			"target":34962
		},
		{
			"buffer":0,
			"byteLength":144,
			"byteOffset":4324,
			"target":34963
		},
		{
			"buffer":0,
			"byteLength":72,
			"byteOffset":4468,
			"target":34962
		},
		{
			"buffer":0,
			"byteLength":72,
			"byteOffset":4540,
			"target":34962
		},
		{
			"buffer":0,
			"byteLength":48,
			"byteOffset":4612,
			"target":34962
		},
		{
			"buffer":0,
			"byteLength":24,
			"byteOffset":4660,
			"target":34963
		},
		{
			"buffer":0,
			"byteLength":288,
			"byteOffset":4684,
			"target":34962
		},
		{
			"buffer":0,
			"byteLength":288,
			"byteOffset":4972,
			"target":34962
		},
		{
			"buffer":0,
			"byteLength":192,
			"byteOffset":5260,
			"target":34962
		},
		{
			"buffer":0,
			"byteLength":72,
			"byteOffset":5452,
			"target":34963
		},
		{
			"buffer":0,
			"byteLength":2880,
			"byteOffset":5524,
			"target":34962
		},
		{
			"buffer":0,
			"byteLength":2880,
			"byteOffset":8404,
			"target":34962
		},
		{
			"buffer":0,
			"byteLength":1920,
			"byteOffset":11284,
			"target":34962
		},
		{
			"buffer":0,
			"byteLength":960,
			"byteOffset":13204,
			"target":34963
		}
	],
	"samplers":[
		{
			"magFilter":9729,
			"minFilter":9987
		}
	],
	"buffers":[
		{
			"byteLength":14164,
			"uri":"panel_01.bin"
		}
	]
}
