{
	"asset":{
		"generator":"Khronos glTF Blender I/O v4.4.56",
		"version":"2.0"
	},
	"scene":0,
	"scenes":[
		{
			"name":"panel_mid",
			"nodes":[
				0,
				1,
				2,
				3,
				4
			]
		}
	],
	"nodes":[
		{
			"mesh":0,
			"name":"Plane.008"
		},
		{
			"mesh":1,
			"name":"Neones.003"
		},
		{
			"mesh":2,
			"name":"Plane.009"
		},
		{
			"mesh":3,
			"name":"Panel_01_collider.003"
		},
		{
			"mesh":4,
			"name":"Details.004"
		}
	],
	"materials":[
		{
			"doubleSided":true,
			"name":"Template_Palette",
			"pbrMetallicRoughness":{
				"baseColorTexture":{
					"index":0
				},
				"metallicFactor":0.20000000298023224,
				"roughnessFactor":0.2631579041481018
			}
		},
		{
			"doubleSided":true,
			"emissiveFactor":[
				1,
				1,
				1
			],
			"emissiveTexture":{
				"index":1
			},
			"name":"Template_Palette_Emission",
			"pbrMetallicRoughness":{
				"baseColorTexture":{
					"index":2
				},
				"metallicFactor":0.20000000298023224,
				"roughnessFactor":0.2631579041481018
			}
		}
	],
	"meshes":[
		{
			"name":"Plane.019",
			"primitives":[
				{
					"attributes":{
						"POSITION":0,
						"NORMAL":1,
						"TEXCOORD_0":2
					},
					"indices":3,
					"material":0
				}
			]
		},
		{
			"name":"Plane.020",
			"primitives":[
				{
					"attributes":{
						"POSITION":4,
						"NORMAL":5,
						"TEXCOORD_0":6
					},
					"indices":7,
					"material":1
				}
			]
		},
		{
			"name":"Plane.021",
			"primitives":[
				{
					"attributes":{
						"POSITION":8,
						"NORMAL":9,
						"TEXCOORD_0":10
					},
					"indices":11,
					"material":0
				}
			]
		},
		{
			"name":"Cube.014",
			"primitives":[
				{
					"attributes":{
						"POSITION":12,
						"NORMAL":13,
						"TEXCOORD_0":14
					},
					"indices":15
				}
			]
		},
		{
			"name":"Plane.022",
			"primitives":[
				{
					"attributes":{
						"POSITION":16,
						"NORMAL":17,
						"TEXCOORD_0":18
					},
					"indices":19,
					"material":0
				}
			]
		}
	],
	"textures":[
		{
			"sampler":0,
			"source":0
		},
		{
			"sampler":0,
			"source":0
		},
		{
			"sampler":0,
			"source":0
		}
	],
	"images":[
		{
			"mimeType":"image/png",
			"name":"template_palette",
			"uri":"textures/template_palette.png"
		}
	],
	"accessors":[
		{
			"bufferView":0,
			"componentType":5126,
			"count":140,
			"max":[
				2.000092029571533,
				4,
				0.15058359503746033
			],
			"min":[
				0,
				0,
				-0.10006867349147797
			],
			"type":"VEC3"
		},
		{
			"bufferView":1,
			"componentType":5126,
			"count":140,
			"type":"VEC3"
		},
		{
			"bufferView":2,
			"componentType":5126,
			"count":140,
			"type":"VEC2"
		},
		{
			"bufferView":3,
			"componentType":5123,
			"count":360,
			"type":"SCALAR"
		},
		{
			"bufferView":4,
			"componentType":5126,
			"count":48,
			"max":[
				1.9011096954345703,
				3.930576801300049,
				0.05285909026861191
			],
			"min":[
				0.09892696142196655,
				0.19200170040130615,
				-0.012564107775688171
			],
			"type":"VEC3"
		},
		{
			"bufferView":5,
			"componentType":5126,
			"count":48,
			"type":"VEC3"
		},
		{
			"bufferView":6,
			"componentType":5126,
			"count":48,
			"type":"VEC2"
		},
		{
			"bufferView":7,
			"componentType":5123,
			"count":72,
			"type":"SCALAR"
		},
		{
			"bufferView":8,
			"componentType":5126,
			"count":6,
			"max":[
				1.899449110031128,
				3.901585102081299,
				-0.10006867349147797
			],
			"min":[
				0.10058802366256714,
				0.18007004261016846,
				-0.10006867349147797
			],
			"type":"VEC3"
		},
		{
			"bufferView":9,
			"componentType":5126,
			"count":6,
			"type":"VEC3"
		},
		{
			"bufferView":10,
			"componentType":5126,
			"count":6,
			"type":"VEC2"
		},
		{
			"bufferView":11,
			"componentType":5123,
			"count":12,
			"type":"SCALAR"
		},
		{
			"bufferView":12,
			"componentType":5126,
			"count":24,
			"max":[
				2.000092029571533,
				4,
				0.09972380846738815
			],
			"min":[
				0,
				0,
				-0.09986115247011185
			],
			"type":"VEC3"
		},
		{
			"bufferView":13,
			"componentType":5126,
			"count":24,
			"type":"VEC3"
		},
		{
			"bufferView":14,
			"componentType":5126,
			"count":24,
			"type":"VEC2"
		},
		{
			"bufferView":15,
			"componentType":5123,
			"count":36,
			"type":"SCALAR"
		},
		{
			"bufferView":16,
			"componentType":5126,
			"count":120,
			"max":[
				2.000092029571533,
				3.901585340499878,
				-6.859004497528076e-05
			],
			"min":[
				0,
				0.180070161819458,
				-0.07986561208963394
			],
			"type":"VEC3"
		},
		{
			"bufferView":17,
			"componentType":5126,
			"count":120,
			"type":"VEC3"
		},
		{
			"bufferView":18,
			"componentType":5126,
			"count":120,
			"type":"VEC2"
		},
		{
			"bufferView":19,
			"componentType":5123,
			"count":240,
			"type":"SCALAR"
		}
	],
	"bufferViews":[
		{
			"buffer":0,
			"byteLength":1680,
			"byteOffset":0,
			"target":34962
		},
		{
			"buffer":0,
			"byteLength":1680,
			"byteOffset":1680,
			"target":34962
		},
		{
			"buffer":0,
			"byteLength":1120,
			"byteOffset":3360,
			"target":34962
		},
		{
			"buffer":0,
			"byteLength":720,
			"byteOffset":4480,
			"target":34963
		},
		{
			"buffer":0,
			"byteLength":576,
			"byteOffset":5200,
			"target":34962
		},
		{
			"buffer":0,
			"byteLength":576,
			"byteOffset":5776,
			"target":34962
		},
		{
			"buffer":0,
			"byteLength":384,
			"byteOffset":6352,
			"target":34962
		},
		{
			"buffer":0,
			"byteLength":144,
			"byteOffset":6736,
			"target":34963
		},
		{
			"buffer":0,
			"byteLength":72,
			"byteOffset":6880,
			"target":34962
		},
		{
			"buffer":0,
			"byteLength":72,
			"byteOffset":6952,
			"target":34962
		},
		{
			"buffer":0,
			"byteLength":48,
			"byteOffset":7024,
			"target":34962
		},
		{
			"buffer":0,
			"byteLength":24,
			"byteOffset":7072,
			"target":34963
		},
		{
			"buffer":0,
			"byteLength":288,
			"byteOffset":7096,
			"target":34962
		},
		{
			"buffer":0,
			"byteLength":288,
			"byteOffset":7384,
			"target":34962
		},
		{
			"buffer":0,
			"byteLength":192,
			"byteOffset":7672,
			"target":34962
		},
		{
			"buffer":0,
			"byteLength":72,
			"byteOffset":7864,
			"target":34963
		},
		{
			"buffer":0,
			"byteLength":1440,
			"byteOffset":7936,
			"target":34962
		},
		{
			"buffer":0,
			"byteLength":1440,
			"byteOffset":9376,
			"target":34962
		},
		{
			"buffer":0,
			"byteLength":960,
			"byteOffset":10816,
			"target":34962
		},
		{
			"buffer":0,
			"byteLength":480,
			"byteOffset":11776,
			"target":34963
		}
	],
	"samplers":[
		{
			"magFilter":9729,
			"minFilter":9987
		}
	],
	"buffers":[
		{
			"byteLength":12256,
			"uri":"panel_mid.bin"
		}
	]
}
