{
	"asset":{
		"generator":"Khronos glTF Blender I/O v4.4.56",
		"version":"2.0"
	},
	"extensionsUsed":[
		"KHR_materials_specular"
	],
	"scene":0,
	"scenes":[
		{
			"name":"panel_window",
			"nodes":[
				0,
				1,
				2,
				3,
				4,
				5
			]
		}
	],
	"nodes":[
		{
			"mesh":0,
			"name":"Plane.003"
		},
		{
			"mesh":1,
			"name":"Neones.001"
		},
		{
			"mesh":2,
			"name":"Details.002"
		},
		{
			"mesh":3,
			"name":"Plane.004"
		},
		{
			"mesh":4,
			"name":"Panel_01_collider.001"
		},
		{
			"mesh":5,
			"name":"Cube"
		}
	],
	"materials":[
		{
			"doubleSided":true,
			"name":"Template_Palette",
			"pbrMetallicRoughness":{
				"baseColorTexture":{
					"index":0
				},
				"metallicFactor":0.20000000298023224,
				"roughnessFactor":0.2631579041481018
			}
		},
		{
			"doubleSided":true,
			"emissiveFactor":[
				1,
				1,
				1
			],
			"emissiveTexture":{
				"index":1
			},
			"name":"Template_Palette_Emission",
			"pbrMetallicRoughness":{
				"baseColorTexture":{
					"index":2
				},
				"metallicFactor":0.20000000298023224,
				"roughnessFactor":0.2631579041481018
			}
		},
		{
			"alphaMode":"BLEND",
			"doubleSided":true,
			"extensions":{
				"KHR_materials_specular":{
					"specularColorFactor":[
						2.0,
						2.0,
						2.0
					]
				}
			},
			"name":"Template_Palette_Glass",
			"pbrMetallicRoughness":{
				"baseColorFactor":[
					1,
					1,
					1,
					0.20000000298023224
				],
				"baseColorTexture":{
					"index":3
				},
				"metallicFactor":0.20000000298023224,
				"roughnessFactor":0
			}
		}
	],
	"meshes":[
		{
			"name":"Plane.005",
			"primitives":[
				{
					"attributes":{
						"POSITION":0,
						"NORMAL":1,
						"TEXCOORD_0":2
					},
					"indices":3,
					"material":0
				}
			]
		},
		{
			"name":"Plane.006",
			"primitives":[
				{
					"attributes":{
						"POSITION":4,
						"NORMAL":5,
						"TEXCOORD_0":6
					},
					"indices":7,
					"material":1
				}
			]
		},
		{
			"name":"Plane.007",
			"primitives":[
				{
					"attributes":{
						"POSITION":8,
						"NORMAL":9,
						"TEXCOORD_0":10
					},
					"indices":11,
					"material":0
				}
			]
		},
		{
			"name":"Plane.008",
			"primitives":[
				{
					"attributes":{
						"POSITION":12,
						"NORMAL":13,
						"TEXCOORD_0":14
					},
					"indices":15,
					"material":0
				}
			]
		},
		{
			"name":"Cube.011",
			"primitives":[
				{
					"attributes":{
						"POSITION":16,
						"NORMAL":17,
						"TEXCOORD_0":18
					},
					"indices":19
				}
			]
		},
		{
			"name":"Cube.012",
			"primitives":[
				{
					"attributes":{
						"POSITION":20,
						"NORMAL":21,
						"TEXCOORD_0":22
					},
					"indices":23,
					"material":0
				},
				{
					"attributes":{
						"POSITION":24,
						"NORMAL":25,
						"TEXCOORD_0":26
					},
					"indices":27,
					"material":2
				}
			]
		}
	],
	"textures":[
		{
			"sampler":0,
			"source":0
		},
		{
			"sampler":0,
			"source":0
		},
		{
			"sampler":0,
			"source":0
		},
		{
			"sampler":0,
			"source":0
		}
	],
	"images":[
		{
			"mimeType":"image/png",
			"name":"template_palette",
			"uri":"textures/template_palette.png"
		}
	],
	"accessors":[
		{
			"bufferView":0,
			"componentType":5126,
			"count":140,
			"max":[
				6,
				4,
				0.15064874291419983
			],
			"min":[
				-2.384185791015625e-07,
				0,
				-0.10000352561473846
			],
			"type":"VEC3"
		},
		{
			"bufferView":1,
			"componentType":5126,
			"count":140,
			"type":"VEC3"
		},
		{
			"bufferView":2,
			"componentType":5126,
			"count":140,
			"type":"VEC2"
		},
		{
			"bufferView":3,
			"componentType":5123,
			"count":360,
			"type":"SCALAR"
		},
		{
			"bufferView":4,
			"componentType":5126,
			"count":48,
			"max":[
				5.901660919189453,
				3.930576801300049,
				0.05292423814535141
			],
			"min":[
				0.09833860397338867,
				0.19200170040130615,
				-0.01249895989894867
			],
			"type":"VEC3"
		},
		{
			"bufferView":5,
			"componentType":5126,
			"count":48,
			"type":"VEC3"
		},
		{
			"bufferView":6,
			"componentType":5126,
			"count":48,
			"type":"VEC2"
		},
		{
			"bufferView":7,
			"componentType":5123,
			"count":72,
			"type":"SCALAR"
		},
		{
			"bufferView":8,
			"componentType":5126,
			"count":408,
			"max":[
				6,
				3.901585340499878,
				-3.4421682357788086e-06
			],
			"min":[
				0,
				0.18007004261016846,
				-0.07980047166347504
			],
			"type":"VEC3"
		},
		{
			"bufferView":9,
			"componentType":5126,
			"count":408,
			"type":"VEC3"
		},
		{
			"bufferView":10,
			"componentType":5126,
			"count":408,
			"type":"VEC2"
		},
		{
			"bufferView":11,
			"componentType":5123,
			"count":624,
			"type":"SCALAR"
		},
		{
			"bufferView":12,
			"componentType":5126,
			"count":20,
			"max":[
				5.900000095367432,
				3.901585102081299,
				-0.10000352561473846
			],
			"min":[
				0.09999990463256836,
				0.18007004261016846,
				-0.10000357031822205
			],
			"type":"VEC3"
		},
		{
			"bufferView":13,
			"componentType":5126,
			"count":20,
			"type":"VEC3"
		},
		{
			"bufferView":14,
			"componentType":5126,
			"count":20,
			"type":"VEC2"
		},
		{
			"bufferView":15,
			"componentType":5123,
			"count":60,
			"type":"SCALAR"
		},
		{
			"bufferView":16,
			"componentType":5126,
			"count":24,
			"max":[
				6,
				4,
				0.09978895634412766
			],
			"min":[
				0,
				0,
				-0.09979601204395294
			],
			"type":"VEC3"
		},
		{
			"bufferView":17,
			"componentType":5126,
			"count":24,
			"type":"VEC3"
		},
		{
			"bufferView":18,
			"componentType":5126,
			"count":24,
			"type":"VEC2"
		},
		{
			"bufferView":19,
			"componentType":5123,
			"count":36,
			"type":"SCALAR"
		},
		{
			"bufferView":20,
			"componentType":5126,
			"count":112,
			"max":[
				5,
				3.500000238418579,
				0.01293402910232544
			],
			"min":[
				1,
				0.5,
				-0.12148019671440125
			],
			"type":"VEC3"
		},
		{
			"bufferView":21,
			"componentType":5126,
			"count":112,
			"type":"VEC3"
		},
		{
			"bufferView":22,
			"componentType":5126,
			"count":112,
			"type":"VEC2"
		},
		{
			"bufferView":23,
			"componentType":5123,
			"count":264,
			"type":"SCALAR"
		},
		{
			"bufferView":24,
			"componentType":5126,
			"count":15,
			"max":[
				4.947330474853516,
				3.4235291481018066,
				-0.04962367191910744
			],
			"min":[
				1.101961374282837,
				0.5764710903167725,
				-0.04962367191910744
			],
			"type":"VEC3"
		},
		{
			"bufferView":25,
			"componentType":5126,
			"count":15,
			"type":"VEC3"
		},
		{
			"bufferView":26,
			"componentType":5126,
			"count":15,
			"type":"VEC2"
		},
		{
			"bufferView":27,
			"componentType":5123,
			"count":36,
			"type":"SCALAR"
		}
	],
	"bufferViews":[
		{
			"buffer":0,
			"byteLength":1680,
			"byteOffset":0,
			"target":34962
		},
		{
			"buffer":0,
			"byteLength":1680,
			"byteOffset":1680,
			"target":34962
		},
		{
			"buffer":0,
			"byteLength":1120,
			"byteOffset":3360,
			"target":34962
		},
		{
			"buffer":0,
			"byteLength":720,
			"byteOffset":4480,
			"target":34963
		},
		{
			"buffer":0,
			"byteLength":576,
			"byteOffset":5200,
			"target":34962
		},
		{
			"buffer":0,
			"byteLength":576,
			"byteOffset":5776,
			"target":34962
		},
		{
			"buffer":0,
			"byteLength":384,
			"byteOffset":6352,
			"target":34962
		},
		{
			"buffer":0,
			"byteLength":144,
			"byteOffset":6736,
			"target":34963
		},
		{
			"buffer":0,
			"byteLength":4896,
			"byteOffset":6880,
			"target":34962
		},
		{
			"buffer":0,
			"byteLength":4896,
			"byteOffset":11776,
			"target":34962
		},
		{
			"buffer":0,
			"byteLength":3264,
			"byteOffset":16672,
			"target":34962
		},
		{
			"buffer":0,
			"byteLength":1248,
			"byteOffset":19936,
			"target":34963
		},
		{
			"buffer":0,
			"byteLength":240,
			"byteOffset":21184,
			"target":34962
		},
		{
			"buffer":0,
			"byteLength":240,
			"byteOffset":21424,
			"target":34962
		},
		{
			"buffer":0,
			"byteLength":160,
			"byteOffset":21664,
			"target":34962
		},
		{
			"buffer":0,
			"byteLength":120,
			"byteOffset":21824,
			"target":34963
		},
		{
			"buffer":0,
			"byteLength":288,
			"byteOffset":21944,
			"target":34962
		},
		{
			"buffer":0,
			"byteLength":288,
			"byteOffset":22232,
			"target":34962
		},
		{
			"buffer":0,
			"byteLength":192,
			"byteOffset":22520,
			"target":34962
		},
		{
			"buffer":0,
			"byteLength":72,
			"byteOffset":22712,
			"target":34963
		},
		{
			"buffer":0,
			"byteLength":1344,
			"byteOffset":22784,
			"target":34962
		},
		{
			"buffer":0,
			"byteLength":1344,
			"byteOffset":24128,
			"target":34962
		},
		{
			"buffer":0,
			"byteLength":896,
			"byteOffset":25472,
			"target":34962
		},
		{
			"buffer":0,
			"byteLength":528,
			"byteOffset":26368,
			"target":34963
		},
		{
			"buffer":0,
			"byteLength":180,
			"byteOffset":26896,
			"target":34962
		},
		{
			"buffer":0,
			"byteLength":180,
			"byteOffset":27076,
			"target":34962
		},
		{
			"buffer":0,
			"byteLength":120,
			"byteOffset":27256,
			"target":34962
		},
		{
			"buffer":0,
			"byteLength":72,
			"byteOffset":27376,
			"target":34963
		}
	],
	"samplers":[
		{
			"magFilter":9729,
			"minFilter":9987
		}
	],
	"buffers":[
		{
			"byteLength":27448,
			"uri":"panel_window.bin"
		}
	]
}
