{
	"asset":{
		"generator":"Khronos glTF Blender I/O v4.4.56",
		"version":"2.0"
	},
	"scene":0,
	"scenes":[
		{
			"name":"Photowall",
			"nodes":[
				5
			]
		}
	],
	"nodes":[
		{
			"mesh":0,
			"name":"photowall_collider"
		},
		{
			"mesh":1,
			"name":"Photowall_Limit",
			"translation":[
				4.086363792419434,
				0.061417579650878906,
				0.07547855377197266
			]
		},
		{
			"mesh":2,
			"name":"Photowall_Limit_collider",
			"translation":[
				4.086363792419434,
				0.061417579650878906,
				0.07547855377197266
			]
		},
		{
			"mesh":3,
			"name":"Plane.013"
		},
		{
			"mesh":4,
			"name":"Plane.014"
		},
		{
			"children":[
				0,
				1,
				2,
				3,
				4
			],
			"name":"Photowall_Empty"
		}
	],
	"materials":[
		{
			"doubleSided":true,
			"name":"Template_Palette_metal",
			"pbrMetallicRoughness":{
				"baseColorTexture":{
					"index":0
				},
				"roughnessFactor":0.20000000298023224
			}
		},
		{
			"doubleSided":true,
			"name":"Template_Palette_rough",
			"pbrMetallicRoughness":{
				"baseColorTexture":{
					"index":1
				},
				"metallicFactor":0
			}
		},
		{
			"doubleSided":true,
			"emissiveFactor":[
				0.10000000149011612,
				0.10000000149011612,
				0.10000000149011612
			],
			"emissiveTexture":{
				"index":2
			},
			"name":"Photowall",
			"pbrMetallicRoughness":{
				"baseColorTexture":{
					"index":3
				},
				"metallicFactor":0
			}
		},
		{
			"doubleSided":true,
			"emissiveFactor":[
				1,
				1,
				1
			],
			"emissiveTexture":{
				"index":4
			},
			"name":"Template_Palette_Emission",
			"pbrMetallicRoughness":{
				"baseColorTexture":{
					"index":5
				},
				"metallicFactor":0.20000000298023224,
				"roughnessFactor":0.2631579041481018
			}
		}
	],
	"meshes":[
		{
			"name":"Plane.045",
			"primitives":[
				{
					"attributes":{
						"POSITION":0,
						"NORMAL":1,
						"TEXCOORD_0":2
					},
					"indices":3
				}
			]
		},
		{
			"name":"B\u00e9zierCurve",
			"primitives":[
				{
					"attributes":{
						"POSITION":4,
						"NORMAL":5,
						"TEXCOORD_0":6
					},
					"indices":7,
					"material":0
				},
				{
					"attributes":{
						"POSITION":8,
						"NORMAL":9,
						"TEXCOORD_0":10
					},
					"indices":11,
					"material":1
				}
			]
		},
		{
			"name":"Cube.015",
			"primitives":[
				{
					"attributes":{
						"POSITION":12,
						"NORMAL":13,
						"TEXCOORD_0":14
					},
					"indices":15
				}
			]
		},
		{
			"name":"Plane.014",
			"primitives":[
				{
					"attributes":{
						"POSITION":16,
						"NORMAL":17,
						"TEXCOORD_0":18
					},
					"indices":19,
					"material":2
				}
			]
		},
		{
			"name":"Plane.044",
			"primitives":[
				{
					"attributes":{
						"POSITION":20,
						"NORMAL":21,
						"TEXCOORD_0":22
					},
					"indices":23,
					"material":1
				},
				{
					"attributes":{
						"POSITION":24,
						"NORMAL":25,
						"TEXCOORD_0":26
					},
					"indices":27,
					"material":3
				}
			]
		}
	],
	"textures":[
		{
			"sampler":0,
			"source":0
		},
		{
			"sampler":0,
			"source":0
		},
		{
			"sampler":0,
			"source":1
		},
		{
			"sampler":0,
			"source":1
		},
		{
			"sampler":0,
			"source":0
		},
		{
			"sampler":0,
			"source":0
		}
	],
	"images":[
		{
			"mimeType":"image/png",
			"name":"template_palette",
			"uri":"textures/template_palette.png"
		},
		{
			"mimeType":"image/jpeg",
			"name":"photowall",
			"uri":"textures/photowall.jpg"
		}
	],
	"accessors":[
		{
			"bufferView":0,
			"componentType":5126,
			"count":24,
			"max":[
				-0.026409193873405457,
				4.233251094818115,
				3.0967319011688232
			],
			"min":[
				-0.2381456047296524,
				2.7397996404943115e-07,
				-3.096731424331665
			],
			"type":"VEC3"
		},
		{
			"bufferView":1,
			"componentType":5126,
			"count":24,
			"type":"VEC3"
		},
		{
			"bufferView":2,
			"componentType":5126,
			"count":24,
			"type":"VEC2"
		},
		{
			"bufferView":3,
			"componentType":5123,
			"count":36,
			"type":"SCALAR"
		},
		{
			"bufferView":4,
			"componentType":5126,
			"count":1164,
			"max":[
				0.2784748077392578,
				1.2201286554336548,
				2.3274106979370117
			],
			"min":[
				-0.1508026123046875,
				-0.030042801052331924,
				-2.449542999267578
			],
			"type":"VEC3"
		},
		{
			"bufferView":5,
			"componentType":5126,
			"count":1164,
			"type":"VEC3"
		},
		{
			"bufferView":6,
			"componentType":5126,
			"count":1164,
			"type":"VEC2"
		},
		{
			"bufferView":7,
			"componentType":5123,
			"count":2700,
			"type":"SCALAR"
		},
		{
			"bufferView":8,
			"componentType":5126,
			"count":108,
			"max":[
				0.07991933822631836,
				0.9991007447242737,
				2.073047637939453
			],
			"min":[
				0.04775285720825195,
				0.42501431703567505,
				-2.1951799392700195
			],
			"type":"VEC3"
		},
		{
			"bufferView":9,
			"componentType":5126,
			"count":108,
			"type":"VEC3"
		},
		{
			"bufferView":10,
			"componentType":5126,
			"count":108,
			"type":"VEC2"
		},
		{
			"bufferView":11,
			"componentType":5123,
			"count":576,
			"type":"SCALAR"
		},
		{
			"bufferView":12,
			"componentType":5126,
			"count":24,
			"max":[
				0.08584663271903992,
				0.8744706511497498,
				2.2902324199676514
			],
			"min":[
				0.030601155012845993,
				-0.07660776376724243,
				-2.2902324199676514
			],
			"type":"VEC3"
		},
		{
			"bufferView":13,
			"componentType":5126,
			"count":24,
			"type":"VEC3"
		},
		{
			"bufferView":14,
			"componentType":5126,
			"count":24,
			"type":"VEC2"
		},
		{
			"bufferView":15,
			"componentType":5123,
			"count":36,
			"type":"SCALAR"
		},
		{
			"bufferView":16,
			"componentType":5126,
			"count":4,
			"max":[
				2.384185791015625e-07,
				4.132509231567383,
				3
			],
			"min":[
				-2.3688649264386186e-07,
				0.15821313858032227,
				-3
			],
			"type":"VEC3"
		},
		{
			"bufferView":17,
			"componentType":5126,
			"count":4,
			"type":"VEC3"
		},
		{
			"bufferView":18,
			"componentType":5126,
			"count":4,
			"type":"VEC2"
		},
		{
			"bufferView":19,
			"componentType":5123,
			"count":6,
			"type":"SCALAR"
		},
		{
			"bufferView":20,
			"componentType":5126,
			"count":40,
			"max":[
				4.615118980407715,
				4.233251094818115,
				3.3153951168060303
			],
			"min":[
				-0.4848783612251282,
				0.0305531807243824,
				-3.315394639968872
			],
			"type":"VEC3"
		},
		{
			"bufferView":21,
			"componentType":5126,
			"count":40,
			"type":"VEC3"
		},
		{
			"bufferView":22,
			"componentType":5126,
			"count":40,
			"type":"VEC2"
		},
		{
			"bufferView":23,
			"componentType":5123,
			"count":84,
			"type":"SCALAR"
		},
		{
			"bufferView":24,
			"componentType":5126,
			"count":16,
			"max":[
				-0.026409460231661797,
				0.05112409591674805,
				3.0967319011688232
			],
			"min":[
				-0.2381456047296524,
				0.014089505188167095,
				-3.096731185913086
			],
			"type":"VEC3"
		},
		{
			"bufferView":25,
			"componentType":5126,
			"count":16,
			"type":"VEC3"
		},
		{
			"bufferView":26,
			"componentType":5126,
			"count":16,
			"type":"VEC2"
		},
		{
			"bufferView":27,
			"componentType":5123,
			"count":24,
			"type":"SCALAR"
		}
	],
	"bufferViews":[
		{
			"buffer":0,
			"byteLength":288,
			"byteOffset":0,
			"target":34962
		},
		{
			"buffer":0,
			"byteLength":288,
			"byteOffset":288,
			"target":34962
		},
		{
			"buffer":0,
			"byteLength":192,
			"byteOffset":576,
			"target":34962
		},
		{
			"buffer":0,
			"byteLength":72,
			"byteOffset":768,
			"target":34963
		},
		{
			"buffer":0,
			"byteLength":13968,
			"byteOffset":840,
			"target":34962
		},
		{
			"buffer":0,
			"byteLength":13968,
			"byteOffset":14808,
			"target":34962
		},
		{
			"buffer":0,
			"byteLength":9312,
			"byteOffset":28776,
			"target":34962
		},
		{
			"buffer":0,
			"byteLength":5400,
			"byteOffset":38088,
			"target":34963
		},
		{
			"buffer":0,
			"byteLength":1296,
			"byteOffset":43488,
			"target":34962
		},
		{
			"buffer":0,
			"byteLength":1296,
			"byteOffset":44784,
			"target":34962
		},
		{
			"buffer":0,
			"byteLength":864,
			"byteOffset":46080,
			"target":34962
		},
		{
			"buffer":0,
			"byteLength":1152,
			"byteOffset":46944,
			"target":34963
		},
		{
			"buffer":0,
			"byteLength":288,
			"byteOffset":48096,
			"target":34962
		},
		{
			"buffer":0,
			"byteLength":288,
			"byteOffset":48384,
			"target":34962
		},
		{
			"buffer":0,
			"byteLength":192,
			"byteOffset":48672,
			"target":34962
		},
		{
			"buffer":0,
			"byteLength":72,
			"byteOffset":48864,
			"target":34963
		},
		{
			"buffer":0,
			"byteLength":48,
			"byteOffset":48936,
			"target":34962
		},
		{
			"buffer":0,
			"byteLength":48,
			"byteOffset":48984,
			"target":34962
		},
		{
			"buffer":0,
			"byteLength":32,
			"byteOffset":49032,
			"target":34962
		},
		{
			"buffer":0,
			"byteLength":12,
			"byteOffset":49064,
			"target":34963
		},
		{
			"buffer":0,
			"byteLength":480,
			"byteOffset":49076,
			"target":34962
		},
		{
			"buffer":0,
			"byteLength":480,
			"byteOffset":49556,
			"target":34962
		},
		{
			"buffer":0,
			"byteLength":320,
			"byteOffset":50036,
			"target":34962
		},
		{
			"buffer":0,
			"byteLength":168,
			"byteOffset":50356,
			"target":34963
		},
		{
			"buffer":0,
			"byteLength":192,
			"byteOffset":50524,
			"target":34962
		},
		{
			"buffer":0,
			"byteLength":192,
			"byteOffset":50716,
			"target":34962
		},
		{
			"buffer":0,
			"byteLength":128,
			"byteOffset":50908,
			"target":34962
		},
		{
			"buffer":0,
			"byteLength":48,
			"byteOffset":51036,
			"target":34963
		}
	],
	"samplers":[
		{
			"magFilter":9729,
			"minFilter":9987
		}
	],
	"buffers":[
		{
			"byteLength":51084,
			"uri":"photowall.bin"
		}
	]
}
