{
	"asset":{
		"generator":"Khronos glTF Blender I/O v4.4.56",
		"version":"2.0"
	},
	"scene":0,
	"scenes":[
		{
			"name":"Photowall_Light",
			"nodes":[
				0,
				1,
				2
			]
		}
	],
	"nodes":[
		{
			"mesh":0,
			"name":"Photowall_Light",
			"translation":[
				0,
				3.161691665649414,
				1.382920891046524e-05
			]
		},
		{
			"mesh":1,
			"name":"Photowall_Light_collider"
		},
		{
			"mesh":2,
			"name":"Photowall_Light.001",
			"rotation":[
				0.08715573698282242,
				0,
				0,
				0.9961947798728943
			],
			"translation":[
				0,
				3.161691665649414,
				1.382920891046524e-05
			]
		}
	],
	"materials":[
		{
			"doubleSided":true,
			"name":"Template_Palette",
			"pbrMetallicRoughness":{
				"baseColorTexture":{
					"index":0
				},
				"metallicFactor":0.20000000298023224,
				"roughnessFactor":0.2631579041481018
			}
		},
		{
			"doubleSided":true,
			"name":"Template_Palette_metal",
			"pbrMetallicRoughness":{
				"baseColorTexture":{
					"index":1
				},
				"roughnessFactor":0.20000000298023224
			}
		},
		{
			"doubleSided":true,
			"emissiveFactor":[
				1,
				1,
				1
			],
			"emissiveTexture":{
				"index":2
			},
			"name":"Template_Palette_Emission",
			"pbrMetallicRoughness":{
				"baseColorTexture":{
					"index":3
				},
				"metallicFactor":0.20000000298023224,
				"roughnessFactor":0.2631579041481018
			}
		}
	],
	"meshes":[
		{
			"name":"Torus.001",
			"primitives":[
				{
					"attributes":{
						"POSITION":0,
						"NORMAL":1,
						"TEXCOORD_0":2
					},
					"indices":3,
					"material":0
				},
				{
					"attributes":{
						"POSITION":4,
						"NORMAL":5,
						"TEXCOORD_0":6
					},
					"indices":7,
					"material":1
				}
			]
		},
		{
			"name":"Cylinder.002",
			"primitives":[
				{
					"attributes":{
						"POSITION":8,
						"NORMAL":9,
						"TEXCOORD_0":10
					},
					"indices":11
				}
			]
		},
		{
			"name":"Torus.003",
			"primitives":[
				{
					"attributes":{
						"POSITION":12,
						"NORMAL":13,
						"TEXCOORD_0":14
					},
					"indices":15,
					"material":0
				},
				{
					"attributes":{
						"POSITION":16,
						"NORMAL":17,
						"TEXCOORD_0":18
					},
					"indices":19,
					"material":2
				},
				{
					"attributes":{
						"POSITION":20,
						"NORMAL":21,
						"TEXCOORD_0":22
					},
					"indices":23,
					"material":1
				}
			]
		}
	],
	"textures":[
		{
			"sampler":0,
			"source":0
		},
		{
			"sampler":0,
			"source":0
		},
		{
			"sampler":0,
			"source":0
		},
		{
			"sampler":0,
			"source":0
		}
	],
	"images":[
		{
			"mimeType":"image/png",
			"name":"template_palette",
			"uri":"textures/template_palette.png"
		}
	],
	"accessors":[
		{
			"bufferView":0,
			"componentType":5126,
			"count":186,
			"max":[
				0.6083682179450989,
				-0.008935213088989258,
				0.5372771620750427
			],
			"min":[
				-0.6083682179450989,
				-3.140542984008789,
				-0.2767832577228546
			],
			"type":"VEC3"
		},
		{
			"bufferView":1,
			"componentType":5126,
			"count":186,
			"type":"VEC3"
		},
		{
			"bufferView":2,
			"componentType":5126,
			"count":186,
			"type":"VEC2"
		},
		{
			"bufferView":3,
			"componentType":5123,
			"count":720,
			"type":"SCALAR"
		},
		{
			"bufferView":4,
			"componentType":5126,
			"count":192,
			"max":[
				0.11818943172693253,
				-0.5361192226409912,
				0.1312917172908783
			],
			"min":[
				-0.11817129701375961,
				-2.4205188751220703,
				-0.08188547194004059
			],
			"type":"VEC3"
		},
		{
			"bufferView":5,
			"componentType":5126,
			"count":192,
			"type":"VEC3"
		},
		{
			"bufferView":6,
			"componentType":5126,
			"count":192,
			"type":"VEC2"
		},
		{
			"bufferView":7,
			"componentType":5123,
			"count":504,
			"type":"SCALAR"
		},
		{
			"bufferView":8,
			"componentType":5126,
			"count":78,
			"max":[
				0.6755181550979614,
				3.7991020679473877,
				0.5424240231513977
			],
			"min":[
				-0.6755181550979614,
				0.007662581279873848,
				-0.36739277839660645
			],
			"type":"VEC3"
		},
		{
			"bufferView":9,
			"componentType":5126,
			"count":78,
			"type":"VEC3"
		},
		{
			"bufferView":10,
			"componentType":5126,
			"count":78,
			"type":"VEC2"
		},
		{
			"bufferView":11,
			"componentType":5123,
			"count":126,
			"type":"SCALAR"
		},
		{
			"bufferView":12,
			"componentType":5126,
			"count":396,
			"max":[
				0.5105903148651123,
				0.5096964836120605,
				0.048340726643800735
			],
			"min":[
				-0.5105903148651123,
				-0.5115289688110352,
				-0.017582256346940994
			],
			"type":"VEC3"
		},
		{
			"bufferView":13,
			"componentType":5126,
			"count":396,
			"type":"VEC3"
		},
		{
			"bufferView":14,
			"componentType":5126,
			"count":396,
			"type":"VEC2"
		},
		{
			"bufferView":15,
			"componentType":5123,
			"count":852,
			"type":"SCALAR"
		},
		{
			"bufferView":16,
			"componentType":5126,
			"count":42,
			"max":[
				0.3971078097820282,
				0.40822458267211914,
				0.05072460696101189
			],
			"min":[
				-0.4043384790420532,
				-0.4263601303100586,
				0.04958287253975868
			],
			"type":"VEC3"
		},
		{
			"bufferView":17,
			"componentType":5126,
			"count":42,
			"type":"VEC3"
		},
		{
			"bufferView":18,
			"componentType":5126,
			"count":42,
			"type":"VEC2"
		},
		{
			"bufferView":19,
			"componentType":5123,
			"count":84,
			"type":"SCALAR"
		},
		{
			"bufferView":20,
			"componentType":5126,
			"count":64,
			"max":[
				0.6364518404006958,
				0.030732393264770508,
				0.03073248453438282
			],
			"min":[
				-0.6364518404006958,
				-0.030732154846191406,
				-0.030732478946447372
			],
			"type":"VEC3"
		},
		{
			"bufferView":21,
			"componentType":5126,
			"count":64,
			"type":"VEC3"
		},
		{
			"bufferView":22,
			"componentType":5126,
			"count":64,
			"type":"VEC2"
		},
		{
			"bufferView":23,
			"componentType":5123,
			"count":168,
			"type":"SCALAR"
		}
	],
	"bufferViews":[
		{
			"buffer":0,
			"byteLength":2232,
			"byteOffset":0,
			"target":34962
		},
		{
			"buffer":0,
			"byteLength":2232,
			"byteOffset":2232,
			"target":34962
		},
		{
			"buffer":0,
			"byteLength":1488,
			"byteOffset":4464,
			"target":34962
		},
		{
			"buffer":0,
			"byteLength":1440,
			"byteOffset":5952,
			"target":34963
		},
		{
			"buffer":0,
			"byteLength":2304,
			"byteOffset":7392,
			"target":34962
		},
		{
			"buffer":0,
			"byteLength":2304,
			"byteOffset":9696,
			"target":34962
		},
		{
			"buffer":0,
			"byteLength":1536,
			"byteOffset":12000,
			"target":34962
		},
		{
			"buffer":0,
			"byteLength":1008,
			"byteOffset":13536,
			"target":34963
		},
		{
			"buffer":0,
			"byteLength":936,
			"byteOffset":14544,
			"target":34962
		},
		{
			"buffer":0,
			"byteLength":936,
			"byteOffset":15480,
			"target":34962
		},
		{
			"buffer":0,
			"byteLength":624,
			"byteOffset":16416,
			"target":34962
		},
		{
			"buffer":0,
			"byteLength":252,
			"byteOffset":17040,
			"target":34963
		},
		{
			"buffer":0,
			"byteLength":4752,
			"byteOffset":17292,
			"target":34962
		},
		{
			"buffer":0,
			"byteLength":4752,
			"byteOffset":22044,
			"target":34962
		},
		{
			"buffer":0,
			"byteLength":3168,
			"byteOffset":26796,
			"target":34962
		},
		{
			"buffer":0,
			"byteLength":1704,
			"byteOffset":29964,
			"target":34963
		},
		{
			"buffer":0,
			"byteLength":504,
			"byteOffset":31668,
			"target":34962
		},
		{
			"buffer":0,
			"byteLength":504,
			"byteOffset":32172,
			"target":34962
		},
		{
			"buffer":0,
			"byteLength":336,
			"byteOffset":32676,
			"target":34962
		},
		{
			"buffer":0,
			"byteLength":168,
			"byteOffset":33012,
			"target":34963
		},
		{
			"buffer":0,
			"byteLength":768,
			"byteOffset":33180,
			"target":34962
		},
		{
			"buffer":0,
			"byteLength":768,
			"byteOffset":33948,
			"target":34962
		},
		{
			"buffer":0,
			"byteLength":512,
			"byteOffset":34716,
			"target":34962
		},
		{
			"buffer":0,
			"byteLength":336,
			"byteOffset":35228,
			"target":34963
		}
	],
	"samplers":[
		{
			"magFilter":9729,
			"minFilter":9987
		}
	],
	"buffers":[
		{
			"byteLength":35564,
			"uri":"photowall_light.bin"
		}
	]
}
