{
	"asset":{
		"generator":"Khronos glTF Blender I/O v4.4.56",
		"version":"2.0"
	},
	"scene":0,
	"scenes":[
		{
			"name":"Photowall_Light",
			"nodes":[
				0,
				1,
				2
			]
		}
	],
	"nodes":[
		{
			"mesh":0,
			"name":"Photowall_Light",
			"translation":[
				0,
				3.161691665649414,
				1.382920891046524e-05
			]
		},
		{
			"mesh":1,
			"name":"Photowall_Light_collider"
		},
		{
			"mesh":2,
			"name":"Photowall_Light.001",
			"rotation":[
				0.08715573698282242,
				0,
				0,
				0.9961947798728943
			],
			"translation":[
				0,
				3.161691665649414,
				1.382920891046524e-05
			]
		}
	],
	"materials":[
		{
			"doubleSided":true,
			"name":"Template_Palette",
			"pbrMetallicRoughness":{
				"baseColorTexture":{
					"index":0
				},
				"metallicFactor":0.20000000298023224,
				"roughnessFactor":0.2631579041481018
			}
		},
		{
			"doubleSided":true,
			"name":"Template_Palette_metal",
			"pbrMetallicRoughness":{
				"baseColorTexture":{
					"index":1
				},
				"roughnessFactor":0.25
			}
		},
		{
			"doubleSided":true,
			"emissiveFactor":[
				1,
				1,
				1
			],
			"emissiveTexture":{
				"index":2
			},
			"name":"Template_Palette_Emission",
			"pbrMetallicRoughness":{
				"baseColorTexture":{
					"index":3
				},
				"metallicFactor":0.20000000298023224,
				"roughnessFactor":0.2631579041481018
			}
		}
	],
	"meshes":[
		{
			"name":"Torus.001",
			"primitives":[
				{
					"attributes":{
						"POSITION":0,
						"NORMAL":1,
						"TEXCOORD_0":2
					},
					"indices":3,
					"material":0
				},
				{
					"attributes":{
						"POSITION":4,
						"NORMAL":5,
						"TEXCOORD_0":6
					},
					"indices":7,
					"material":1
				}
			]
		},
		{
			"name":"Cylinder.002",
			"primitives":[
				{
					"attributes":{
						"POSITION":8,
						"NORMAL":9,
						"TEXCOORD_0":10
					},
					"indices":11
				}
			]
		},
		{
			"name":"Torus.003",
			"primitives":[
				{
					"attributes":{
						"POSITION":12,
						"NORMAL":13,
						"TEXCOORD_0":14
					},
					"indices":15,
					"material":0
				},
				{
					"attributes":{
						"POSITION":16,
						"NORMAL":17,
						"TEXCOORD_0":18
					},
					"indices":19,
					"material":2
				},
				{
					"attributes":{
						"POSITION":20,
						"NORMAL":21,
						"TEXCOORD_0":22
					},
					"indices":23,
					"material":1
				}
			]
		}
	],
	"textures":[
		{
			"sampler":0,
			"source":0
		},
		{
			"sampler":0,
			"source":0
		},
		{
			"sampler":0,
			"source":0
		},
		{
			"sampler":0,
			"source":0
		}
	],
	"images":[
		{
			"mimeType":"image/png",
			"name":"template_palette",
			"uri":"textures/template_palette.png"
		}
	],
	"accessors":[
		{
			"bufferView":0,
			"componentType":5126,
			"count":142,
			"max":[
				0.6083682179450989,
				-0.008935213088989258,
				0.5372771620750427
			],
			"min":[
				-0.6083682179450989,
				-3.140542984008789,
				-0.2767832577228546
			],
			"type":"VEC3"
		},
		{
			"bufferView":1,
			"componentType":5126,
			"count":142,
			"type":"VEC3"
		},
		{
			"bufferView":2,
			"componentType":5126,
			"count":142,
			"type":"VEC2"
		},
		{
			"bufferView":3,
			"componentType":5123,
			"count":792,
			"type":"SCALAR"
		},
		{
			"bufferView":4,
			"componentType":5126,
			"count":104,
			"max":[
				0.11818943172693253,
				-0.5361192226409912,
				0.1312917172908783
			],
			"min":[
				-0.11817129701375961,
				-2.4205188751220703,
				-0.08188547194004059
			],
			"type":"VEC3"
		},
		{
			"bufferView":5,
			"componentType":5126,
			"count":104,
			"type":"VEC3"
		},
		{
			"bufferView":6,
			"componentType":5126,
			"count":104,
			"type":"VEC2"
		},
		{
			"bufferView":7,
			"componentType":5123,
			"count":504,
			"type":"SCALAR"
		},
		{
			"bufferView":8,
			"componentType":5126,
			"count":78,
			"max":[
				0.6755181550979614,
				3.7991020679473877,
				0.5424240231513977
			],
			"min":[
				-0.6755181550979614,
				0.007662581279873848,
				-0.36739277839660645
			],
			"type":"VEC3"
		},
		{
			"bufferView":9,
			"componentType":5126,
			"count":78,
			"type":"VEC3"
		},
		{
			"bufferView":10,
			"componentType":5126,
			"count":78,
			"type":"VEC2"
		},
		{
			"bufferView":11,
			"componentType":5123,
			"count":126,
			"type":"SCALAR"
		},
		{
			"bufferView":12,
			"componentType":5126,
			"count":468,
			"max":[
				0.5206536054611206,
				0.5197367668151855,
				0.048316504806280136
			],
			"min":[
				-0.5206536054611206,
				-0.5215694904327393,
				-0.017582256346940994
			],
			"type":"VEC3"
		},
		{
			"bufferView":13,
			"componentType":5126,
			"count":468,
			"type":"VEC3"
		},
		{
			"bufferView":14,
			"componentType":5126,
			"count":468,
			"type":"VEC2"
		},
		{
			"bufferView":15,
			"componentType":5123,
			"count":1392,
			"type":"SCALAR"
		},
		{
			"bufferView":16,
			"componentType":5126,
			"count":42,
			"max":[
				0.3971078097820282,
				0.40822458267211914,
				0.05072460696101189
			],
			"min":[
				-0.4043384790420532,
				-0.4263601303100586,
				0.04958287253975868
			],
			"type":"VEC3"
		},
		{
			"bufferView":17,
			"componentType":5126,
			"count":42,
			"type":"VEC3"
		},
		{
			"bufferView":18,
			"componentType":5126,
			"count":42,
			"type":"VEC2"
		},
		{
			"bufferView":19,
			"componentType":5123,
			"count":84,
			"type":"SCALAR"
		},
		{
			"bufferView":20,
			"componentType":5126,
			"count":32,
			"max":[
				0.6364518404006958,
				0.030732393264770508,
				0.03073248453438282
			],
			"min":[
				-0.6364518404006958,
				-0.030732154846191406,
				-0.030732478946447372
			],
			"type":"VEC3"
		},
		{
			"bufferView":21,
			"componentType":5126,
			"count":32,
			"type":"VEC3"
		},
		{
			"bufferView":22,
			"componentType":5126,
			"count":32,
			"type":"VEC2"
		},
		{
			"bufferView":23,
			"componentType":5123,
			"count":168,
			"type":"SCALAR"
		}
	],
	"bufferViews":[
		{
			"buffer":0,
			"byteLength":1704,
			"byteOffset":0,
			"target":34962
		},
		{
			"buffer":0,
			"byteLength":1704,
			"byteOffset":1704,
			"target":34962
		},
		{
			"buffer":0,
			"byteLength":1136,
			"byteOffset":3408,
			"target":34962
		},
		{
			"buffer":0,
			"byteLength":1584,
			"byteOffset":4544,
			"target":34963
		},
		{
			"buffer":0,
			"byteLength":1248,
			"byteOffset":6128,
			"target":34962
		},
		{
			"buffer":0,
			"byteLength":1248,
			"byteOffset":7376,
			"target":34962
		},
		{
			"buffer":0,
			"byteLength":832,
			"byteOffset":8624,
			"target":34962
		},
		{
			"buffer":0,
			"byteLength":1008,
			"byteOffset":9456,
			"target":34963
		},
		{
			"buffer":0,
			"byteLength":936,
			"byteOffset":10464,
			"target":34962
		},
		{
			"buffer":0,
			"byteLength":936,
			"byteOffset":11400,
			"target":34962
		},
		{
			"buffer":0,
			"byteLength":624,
			"byteOffset":12336,
			"target":34962
		},
		{
			"buffer":0,
			"byteLength":252,
			"byteOffset":12960,
			"target":34963
		},
		{
			"buffer":0,
			"byteLength":5616,
			"byteOffset":13212,
			"target":34962
		},
		{
			"buffer":0,
			"byteLength":5616,
			"byteOffset":18828,
			"target":34962
		},
		{
			"buffer":0,
			"byteLength":3744,
			"byteOffset":24444,
			"target":34962
		},
		{
			"buffer":0,
			"byteLength":2784,
			"byteOffset":28188,
			"target":34963
		},
		{
			"buffer":0,
			"byteLength":504,
			"byteOffset":30972,
			"target":34962
		},
		{
			"buffer":0,
			"byteLength":504,
			"byteOffset":31476,
			"target":34962
		},
		{
			"buffer":0,
			"byteLength":336,
			"byteOffset":31980,
			"target":34962
		},
		{
			"buffer":0,
			"byteLength":168,
			"byteOffset":32316,
			"target":34963
		},
		{
			"buffer":0,
			"byteLength":384,
			"byteOffset":32484,
			"target":34962
		},
		{
			"buffer":0,
			"byteLength":384,
			"byteOffset":32868,
			"target":34962
		},
		{
			"buffer":0,
			"byteLength":256,
			"byteOffset":33252,
			"target":34962
		},
		{
			"buffer":0,
			"byteLength":336,
			"byteOffset":33508,
			"target":34963
		}
	],
	"samplers":[
		{
			"magFilter":9729,
			"minFilter":9987
		}
	],
	"buffers":[
		{
			"byteLength":33844,
			"uri":"photowall_light.bin"
		}
	]
}
