{
	"asset":{
		"generator":"Khronos glTF Blender I/O v4.4.56",
		"version":"2.0"
	},
	"scene":0,
	"scenes":[
		{
			"name":"social_instagram",
			"nodes":[
				0,
				1
			]
		}
	],
	"nodes":[
		{
			"mesh":0,
			"name":"social_instagram_collider"
		},
		{
			"mesh":1,
			"name":"social_instagram"
		}
	],
	"materials":[
		{
			"doubleSided":true,
			"emissiveFactor":[
				1,
				1,
				1
			],
			"emissiveTexture":{
				"index":0
			},
			"name":"Template_Palette_Emission",
			"pbrMetallicRoughness":{
				"baseColorTexture":{
					"index":1
				},
				"metallicFactor":0.20000000298023224,
				"roughnessFactor":0.2631579041481018
			}
		}
	],
	"meshes":[
		{
			"name":"Cube.021",
			"primitives":[
				{
					"attributes":{
						"POSITION":0,
						"NORMAL":1,
						"TEXCOORD_0":2
					},
					"indices":3
				}
			]
		},
		{
			"name":"Plane.060",
			"primitives":[
				{
					"attributes":{
						"POSITION":4,
						"NORMAL":5,
						"TEXCOORD_0":6
					},
					"indices":7,
					"material":0
				}
			]
		}
	],
	"textures":[
		{
			"sampler":0,
			"source":0
		},
		{
			"sampler":0,
			"source":0
		}
	],
	"images":[
		{
			"mimeType":"image/png",
			"name":"template_palette",
			"uri":"textures/template_palette.png"
		}
	],
	"accessors":[
		{
			"bufferView":0,
			"componentType":5126,
			"count":24,
			"max":[
				0.35211828351020813,
				0.3590925633907318,
				0.030000001192092896
			],
			"min":[
				-0.35211828351020813,
				-0.35037219524383545,
				0
			],
			"type":"VEC3"
		},
		{
			"bufferView":1,
			"componentType":5126,
			"count":24,
			"type":"VEC3"
		},
		{
			"bufferView":2,
			"componentType":5126,
			"count":24,
			"type":"VEC2"
		},
		{
			"bufferView":3,
			"componentType":5123,
			"count":36,
			"type":"SCALAR"
		},
		{
			"bufferView":4,
			"componentType":5126,
			"count":528,
			"max":[
				0.35616758465766907,
				0.35616758465766907,
				0.010000024922192097
			],
			"min":[
				-0.35616758465766907,
				-0.35616758465766907,
				-2.688990541344083e-08
			],
			"type":"VEC3"
		},
		{
			"bufferView":5,
			"componentType":5126,
			"count":528,
			"type":"VEC3"
		},
		{
			"bufferView":6,
			"componentType":5126,
			"count":528,
			"type":"VEC2"
		},
		{
			"bufferView":7,
			"componentType":5123,
			"count":930,
			"type":"SCALAR"
		}
	],
	"bufferViews":[
		{
			"buffer":0,
			"byteLength":288,
			"byteOffset":0,
			"target":34962
		},
		{
			"buffer":0,
			"byteLength":288,
			"byteOffset":288,
			"target":34962
		},
		{
			"buffer":0,
			"byteLength":192,
			"byteOffset":576,
			"target":34962
		},
		{
			"buffer":0,
			"byteLength":72,
			"byteOffset":768,
			"target":34963
		},
		{
			"buffer":0,
			"byteLength":6336,
			"byteOffset":840,
			"target":34962
		},
		{
			"buffer":0,
			"byteLength":6336,
			"byteOffset":7176,
			"target":34962
		},
		{
			"buffer":0,
			"byteLength":4224,
			"byteOffset":13512,
			"target":34962
		},
		{
			"buffer":0,
			"byteLength":1860,
			"byteOffset":17736,
			"target":34963
		}
	],
	"samplers":[
		{
			"magFilter":9729,
			"minFilter":9987
		}
	],
	"buffers":[
		{
			"byteLength":19596,
			"uri":"social_instagram.bin"
		}
	]
}
