{
	"asset":{
		"generator":"Khronos glTF Blender I/O v4.4.56",
		"version":"2.0"
	},
	"scene":0,
	"scenes":[
		{
			"name":"social_tiktok",
			"nodes":[
				0,
				1,
				2
			]
		}
	],
	"nodes":[
		{
			"mesh":0,
			"name":"social_tiktok_collider.001"
		},
		{
			"mesh":1,
			"name":"social_tiktok"
		},
		{
			"mesh":2,
			"name":"social_tiktok2"
		}
	],
	"materials":[
		{
			"doubleSided":true,
			"name":"Template_Palette",
			"pbrMetallicRoughness":{
				"baseColorTexture":{
					"index":0
				},
				"metallicFactor":0.20000000298023224,
				"roughnessFactor":0.2631579041481018
			}
		},
		{
			"doubleSided":true,
			"emissiveFactor":[
				1,
				1,
				1
			],
			"emissiveTexture":{
				"index":1
			},
			"name":"Template_Palette_Emission",
			"pbrMetallicRoughness":{
				"baseColorTexture":{
					"index":2
				},
				"metallicFactor":0.20000000298023224,
				"roughnessFactor":0.2631579041481018
			}
		}
	],
	"meshes":[
		{
			"name":"Cube.020",
			"primitives":[
				{
					"attributes":{
						"POSITION":0,
						"NORMAL":1,
						"TEXCOORD_0":2
					},
					"indices":3
				}
			]
		},
		{
			"name":"path9",
			"primitives":[
				{
					"attributes":{
						"POSITION":4,
						"NORMAL":5,
						"TEXCOORD_0":6
					},
					"indices":7,
					"material":0
				}
			]
		},
		{
			"name":"path9.001",
			"primitives":[
				{
					"attributes":{
						"POSITION":8,
						"NORMAL":9,
						"TEXCOORD_0":10
					},
					"indices":11,
					"material":1
				}
			]
		}
	],
	"textures":[
		{
			"sampler":0,
			"source":0
		},
		{
			"sampler":0,
			"source":0
		},
		{
			"sampler":0,
			"source":0
		}
	],
	"images":[
		{
			"mimeType":"image/png",
			"name":"template_palette",
			"uri":"textures/template_palette.png"
		}
	],
	"accessors":[
		{
			"bufferView":0,
			"componentType":5126,
			"count":24,
			"max":[
				0.3109380304813385,
				0.42653483152389526,
				0.030000001192092896
			],
			"min":[
				-0.3109380304813385,
				-0.3820846974849701,
				0
			],
			"type":"VEC3"
		},
		{
			"bufferView":1,
			"componentType":5126,
			"count":24,
			"type":"VEC3"
		},
		{
			"bufferView":2,
			"componentType":5126,
			"count":24,
			"type":"VEC2"
		},
		{
			"bufferView":3,
			"componentType":5123,
			"count":36,
			"type":"SCALAR"
		},
		{
			"bufferView":4,
			"componentType":5126,
			"count":234,
			"max":[
				0.25807708501815796,
				0.39982709288597107,
				0.014999986626207829
			],
			"min":[
				-0.25964248180389404,
				-0.20349276065826416,
				-4.045235968419547e-08
			],
			"type":"VEC3"
		},
		{
			"bufferView":5,
			"componentType":5126,
			"count":234,
			"type":"VEC3"
		},
		{
			"bufferView":6,
			"componentType":5126,
			"count":234,
			"type":"VEC2"
		},
		{
			"bufferView":7,
			"componentType":5123,
			"count":456,
			"type":"SCALAR"
		},
		{
			"bufferView":8,
			"componentType":5126,
			"count":140,
			"max":[
				0.2916508913040161,
				0.4265916049480438,
				0.00915511604398489
			],
			"min":[
				-0.29399311542510986,
				-0.3881033658981323,
				0.007647855207324028
			],
			"type":"VEC3"
		},
		{
			"bufferView":9,
			"componentType":5126,
			"count":140,
			"type":"VEC3"
		},
		{
			"bufferView":10,
			"componentType":5126,
			"count":140,
			"type":"VEC2"
		},
		{
			"bufferView":11,
			"componentType":5123,
			"count":336,
			"type":"SCALAR"
		}
	],
	"bufferViews":[
		{
			"buffer":0,
			"byteLength":288,
			"byteOffset":0,
			"target":34962
		},
		{
			"buffer":0,
			"byteLength":288,
			"byteOffset":288,
			"target":34962
		},
		{
			"buffer":0,
			"byteLength":192,
			"byteOffset":576,
			"target":34962
		},
		{
			"buffer":0,
			"byteLength":72,
			"byteOffset":768,
			"target":34963
		},
		{
			"buffer":0,
			"byteLength":2808,
			"byteOffset":840,
			"target":34962
		},
		{
			"buffer":0,
			"byteLength":2808,
			"byteOffset":3648,
			"target":34962
		},
		{
			"buffer":0,
			"byteLength":1872,
			"byteOffset":6456,
			"target":34962
		},
		{
			"buffer":0,
			"byteLength":912,
			"byteOffset":8328,
			"target":34963
		},
		{
			"buffer":0,
			"byteLength":1680,
			"byteOffset":9240,
			"target":34962
		},
		{
			"buffer":0,
			"byteLength":1680,
			"byteOffset":10920,
			"target":34962
		},
		{
			"buffer":0,
			"byteLength":1120,
			"byteOffset":12600,
			"target":34962
		},
		{
			"buffer":0,
			"byteLength":672,
			"byteOffset":13720,
			"target":34963
		}
	],
	"samplers":[
		{
			"magFilter":9729,
			"minFilter":9987
		}
	],
	"buffers":[
		{
			"byteLength":14392,
			"uri":"social_tiktok.bin"
		}
	]
}
